<svg width="24" height="24" viewBox="0 0 24 24" fill="none" xmlns="http://www.w3.org/2000/svg">
<path d="M4.90918 20.9455C4.90918 21.3217 5.05859 21.6824 5.32456 21.9483C5.59052 22.2143 5.95124 22.3637 6.32736 22.3637C6.70349 22.3637 7.06421 22.2143 7.33017 21.9483C7.59613 21.6824 7.74554 21.3217 7.74554 20.9455C7.74554 20.5694 7.59613 20.2087 7.33017 19.9427C7.06421 19.6768 6.70349 19.5273 6.32736 19.5273C5.95124 19.5273 5.59052 19.6768 5.32456 19.9427C5.05859 20.2087 4.90918 20.5694 4.90918 20.9455V20.9455Z" />
<path d="M17.4546 20.9455C17.4546 21.3217 17.604 21.6824 17.87 21.9483C18.1359 22.2143 18.4966 22.3637 18.8728 22.3637C19.2489 22.3637 19.6096 22.2143 19.8756 21.9483C20.1415 21.6824 20.291 21.3217 20.291 20.9455C20.291 20.5694 20.1415 20.2087 19.8756 19.9427C19.6096 19.6768 19.2489 19.5273 18.8728 19.5273C18.4966 19.5273 18.1359 19.6768 17.87 19.9427C17.604 20.2087 17.4546 20.5694 17.4546 20.9455V20.9455Z"/>
<path d="M22.6908 5.56355C22.5817 5.34537 22.3635 5.23627 22.0363 5.23627H4.79991L4.47264 1.85446C4.36355 1.41809 4.03628 1.09082 3.709 1.09082H1.09082V2.72718H2.94537L4.58173 17.6726C4.58173 18.109 5.01809 18.4363 5.34537 18.4363H20.3999C20.8363 18.4363 21.1635 18.109 21.1635 17.7817L22.909 6.21809C22.909 5.99991 22.909 5.78173 22.6908 5.56355V5.56355ZM19.6363 16.7999H5.99991L4.909 6.87264H21.1635L19.6363 16.7999Z" />
</svg>
