<svg width="24" height="24" viewBox="0 0 24 24" fill="none" xmlns="http://www.w3.org/2000/svg">
<path fill-rule="evenodd" clip-rule="evenodd" d="M19.7609 5.45726L20.468 4.75015L19.0538 3.33594L18.3467 4.04304L11.902 10.4878L5.45726 4.04304L4.75015 3.33594L3.33594 4.75015L4.04304 5.45726L10.4878 11.902L4.04304 18.3467L3.33594 19.0538L4.75015 20.468L5.45726 19.7609L11.902 13.3162L18.3467 19.7609L19.0538 20.468L20.468 19.0538L19.7609 18.3467L13.3162 11.902L19.7609 5.45726Z" fill="#DFE1E2"/>
<path fill-rule="evenodd" clip-rule="evenodd" d="M19.7609 5.45726L20.468 4.75015L19.0538 3.33594L18.3467 4.04304L11.902 10.4878L5.45726 4.04304L4.75015 3.33594L3.33594 4.75015L4.04304 5.45726L10.4878 11.902L4.04304 18.3467L3.33594 19.0538L4.75015 20.468L5.45726 19.7609L11.902 13.3162L18.3467 19.7609L19.0538 20.468L20.468 19.0538L19.7609 18.3467L13.3162 11.902L19.7609 5.45726Z" fill="black" fill-opacity="0.2"/>
</svg>
