<svg width="24" height="24" viewBox="0 0 24 24" fill="none" xmlns="http://www.w3.org/2000/svg">
<path fill-rule="evenodd" clip-rule="evenodd" d="M1.92 11C1.92 6.02944 5.78826 2 10.56 2C15.3317 2 19.2 6.02944 19.2 11C19.2 15.9706 15.3317 20 10.56 20C9.14568 20 7.81073 19.646 6.63235 19.0185L6.36736 18.8335L6.34967 18.8609C3.70681 17.3217 1.92 14.3782 1.92 11ZM7.31893 21.9054L5.65579 20.7443C2.29332 18.9043 0 15.2311 0 11C0 4.92487 4.72787 0 10.56 0C12.9892 0 15.2269 0.854425 17.0111 2.29051L17.0356 2.25232L19.1374 3.71961L19.1294 3.73202C22.0574 5.68624 24 9.10621 24 13.0004C24 19.0755 19.2721 24.0004 13.44 24.0004C11.1478 24.0004 9.02366 23.2385 7.29185 21.9447L7.31893 21.9054ZM20.7925 8.2711C21.0063 9.1437 21.12 10.058 21.12 11C21.12 16.5407 17.1874 21.1245 12.0712 21.8882C12.5169 21.9621 12.9741 22.0004 13.44 22.0004C18.2117 22.0004 22.08 17.971 22.08 13.0004C22.08 11.266 21.609 9.64566 20.7925 8.2711ZM6.44528 12.9099C6.76035 13.4013 7.19378 13.8287 7.74557 14.192C8.28113 14.5447 8.80158 14.7632 9.30691 14.8475C9.82549 14.9288 10.2877 14.8782 10.6936 14.696C11.1077 14.519 11.4378 14.2277 11.684 13.822C11.958 13.3518 12.062 12.8997 11.996 12.4658C11.9432 12.0288 11.7996 11.6385 11.5652 11.2948C11.3308 10.9512 11.0087 10.5557 10.5987 10.1083C10.1969 9.6662 9.91834 9.3112 9.76295 9.04324C9.61269 8.76683 9.60937 8.51029 9.753 8.27362C9.88125 8.0623 10.0624 7.95091 10.2965 7.93945C10.5388 7.93332 10.814 8.03179 11.1224 8.23484C11.4551 8.45392 11.6675 8.71211 11.7597 9.00941C11.8651 9.3036 11.8453 9.59818 11.7004 9.89314L13.3314 10.9672C13.7136 10.2251 13.791 9.48934 13.5636 8.75989C13.3413 8.022 12.8285 7.38854 12.0252 6.85954C11.4815 6.50152 10.9504 6.28191 10.4318 6.20069C9.92134 6.12482 9.45909 6.17534 9.04507 6.35227C8.63916 6.53454 8.31822 6.82008 8.08225 7.2089C7.79498 7.68225 7.68031 8.1332 7.73824 8.56176C7.80428 8.99566 7.95449 9.38442 8.18888 9.72806C8.43139 10.077 8.76572 10.4806 9.19187 10.9387C9.59667 11.3945 9.8727 11.7537 10.02 12.0164C10.1805 12.2759 10.1915 12.5197 10.053 12.7479C9.92476 12.9593 9.72628 13.0711 9.45757 13.0834C9.19698 13.1011 8.90439 13.0031 8.57981 12.7893C8.24711 12.5703 8.02102 12.2972 7.90154 11.97C7.79017 11.6483 7.80034 11.3414 7.93203 11.0496L6.21581 9.91943C5.97853 10.3665 5.87795 10.8504 5.91405 11.3711C5.95826 11.8971 6.13534 12.41 6.44528 12.9099Z" fill="#1F2226"/>
</svg>
