<svg width="16" height="16" viewBox="0 0 16 16" fill="none" xmlns="http://www.w3.org/2000/svg">
<path d="M6.71318 1.46798C9.40005 1.47227 11.647 3.51091 11.9117 6.18465C12.1766 8.85839 10.373 11.2983 7.73944 11.8293C5.10561 12.3607 2.49753 10.8107 1.70535 8.24323C0.913182 5.67581 2.19399 2.92581 4.66899 1.88035C5.31571 1.60679 6.01098 1.46653 6.71318 1.46798ZM6.71318 0.255859C3.14298 0.255859 0.248535 3.1503 0.248535 6.72051C0.248535 10.2907 3.14298 13.1852 6.71318 13.1852C10.2834 13.1852 13.1778 10.2907 13.1778 6.72051C13.1778 3.1503 10.2834 0.255859 6.71318 0.255859ZM15.1374 15.7508C15.0578 15.751 14.9789 15.7353 14.9054 15.7048C14.8318 15.6743 14.765 15.6295 14.7089 15.573L11.6382 12.5023C11.4086 12.2644 11.4119 11.8864 11.6455 11.6526C11.8793 11.4187 12.2574 11.4155 12.495 11.6453L15.5657 14.716C15.6504 14.8007 15.7081 14.9087 15.7315 15.0262C15.7548 15.1438 15.7429 15.2656 15.697 15.3763C15.6513 15.4871 15.5737 15.5818 15.4741 15.6485C15.3745 15.7152 15.2573 15.7508 15.1374 15.7508Z" fill="black"/>
</svg>
