<?xml version="1.0" encoding="utf-8"?>
<!-- Generator: Adobe Illustrator 24.0.0, SVG Export Plug-In . SVG Version: 6.00 Build 0)  -->
<svg version="1.1" id="图层_1" xmlns="http://www.w3.org/2000/svg" xmlns:xlink="http://www.w3.org/1999/xlink" x="0px" y="0px"
	 viewBox="0 0 344 441" style="enable-background:new 0 0 344 441;" xml:space="preserve">
<style type="text/css">
	.st0{fill:#282737;stroke:#555766;}
	.st1{fill:#1F1E2D;stroke:#1A1C2C;}
	.st2{fill:#282737;}
	.st3{fill:#AB56DF;fill-opacity:0.82;}
	.st4{fill:url(#SVGID_1_);}
	.st5{fill:#AA1FFF;}
	.st6{fill-rule:evenodd;clip-rule:evenodd;fill:#FFFFFF;}
	.st7{fill:#3A4048;}
	.st8{fill:#1FD424;fill-opacity:0.82;}
	.st9{fill:url(#SVGID_2_);}
	.st10{fill:#1FD524;}
	.st11{fill:#FFFFFF;}
	.st12{fill:url(#SVGID_3_);}
	.st13{fill:url(#SVGID_4_);}
	.st14{fill:url(#SVGID_5_);}
	.st15{fill:url(#SVGID_6_);}
	.st16{fill:none;}
	.st17{fill:none;stroke:#555766;}
	.st18{fill-opacity:0.47;}
	.st19{fill:none;stroke:#555766;stroke-width:3;}
	.st20{fill:none;stroke:url(#SVGID_7_);}
	.st21{fill:none;stroke:url(#SVGID_8_);}
	.st22{fill:#626174;}
	.st23{fill-rule:evenodd;clip-rule:evenodd;fill:#CDD0D4;}
	.st24{font-family:'Poppins-ExtraBold';}
	.st25{font-size:17px;}
	.st26{font-family:'Poppins-Regular';}
	.st27{font-size:13px;}
	.st28{font-family:'Poppins-SemiBoldItalic';}
	.st29{font-size:14px;}
	.st30{fill:#E3E5E8;}
	.st31{font-family:'Poppins-SemiBold';}
	.st32{font-family:'Poppins-Medium';}
	.st33{fill:#7C72EA;}
	.st34{fill:#17BB7F;}
	.tf {
		color: white;
	}
	.star1,.star2,.star3{
		animation: shanshan 1s ease-in-out infinite;		
		}
		.star2{
			animation-duration:1.5s;
			animation-delay:0.6s;
		}
		.star3{
			animation-duration:1.2s;
			animation-delay:0.4s;
		}
@keyframes shanshan {
70%{opacity:0.8;}30%{opacity:0.8;}
50%{
	opacity:0;
}
}
</style>
<path class="st0" d="M16,0.5h312c8.6,0,15.5,6.9,15.5,15.5v409c0,8.6-6.9,15.5-15.5,15.5H16c-8.6,0-15.5-6.9-15.5-15.5V16
	C0.5,7.4,7.4,0.5,16,0.5z"/>
<path class="st1" d="M15,361.5h314c3.6,0,6.5,2.9,6.5,6.5v55c0,5.2-4.3,9.5-9.5,9.5H18c-5.2,0-9.5-4.3-9.5-9.5v-55
	C8.5,364.4,11.4,361.5,15,361.5z"/>
<path class="st2" d="M40,395h92c8.3,0,15,6.7,15,15l0,0c0,8.3-6.7,15-15,15H40c-8.3,0-15-6.7-15-15l0,0C25,401.7,31.7,395,40,395z"
	/>
<path class="st2" d="M212,395h92c8.3,0,15,6.7,15,15l0,0c0,8.3-6.7,15-15,15h-92c-8.3,0-15-6.7-15-15l0,0
	C197,401.7,203.7,395,212,395z"/>
<g>
	<path class="st3" d="M62.3,420c5.5,0,10-4.5,10-10s-4.5-10-10-10c-5.5,0-10,4.5-10,10S56.8,420,62.3,420z"/>
</g>
<g>
	
		<linearGradient id="SVGID_1_" gradientUnits="userSpaceOnUse" x1="57.0514" y1="40.1049" x2="65.4958" y2="22.7719" gradientTransform="matrix(1 0 0 -1 0 442)">
		<stop  offset="0" style="stop-color:#BD9BD1"/>
		<stop  offset="1" style="stop-color:#DABDEC"/>
	</linearGradient>
	<path class="st4" d="M61,420c5.5,0,10-4.5,10-10s-4.5-10-10-10s-10,4.5-10,10S55.5,420,61,420z"/>
</g>
<g>
	<path class="st5" d="M61,418c4.4,0,8-3.6,8-8s-3.6-8-8-8s-8,3.6-8,8S56.6,418,61,418z"/>
</g>
<g>
	<path class="st6" d="M58.1,407.4v5.7c0,0.6-0.5,1.4-0.8,1.8c-0.1,0.1-0.1,0.2,0.1,0.2H58h0.3H61c1.5,0,2.7-1.2,2.7-2.7v-5.2
		c0.1-0.6,0.7-1.6,1.1-2.1c0.1-0.1,0-0.2-0.1-0.2h-0.9h-3.2C59.2,404.9,58.1,406,58.1,407.4z M62,406.6c0,0.4-0.3,0.6-0.6,0.6
		c-0.4,0-0.7-0.3-0.7-0.6s0.3-0.6,0.7-0.6C61.7,406,62,406.2,62,406.6z"/>
</g>
<rect x="172" y="373" class="st7" width="1" height="48"/>
<g>
	<path class="st8" d="M234.3,420c5.5,0,10-4.5,10-10s-4.5-10-10-10c-5.5,0-10,4.5-10,10S228.8,420,234.3,420z"/>
</g>
<g>
	
		<linearGradient id="SVGID_2_" gradientUnits="userSpaceOnUse" x1="226.0432" y1="40.1528" x2="254.4872" y2="6.8188" gradientTransform="matrix(1 0 0 -1 0 442)">
		<stop  offset="0" style="stop-color:#A9FFBF"/>
		<stop  offset="1" style="stop-color:#FCFFE0"/>
	</linearGradient>
	<path class="st9" d="M233,420c5.5,0,10-4.5,10-10s-4.5-10-10-10s-10,4.5-10,10S227.5,420,233,420z"/>
</g>
<g>
	<path class="st10" d="M233,418c4.4,0,8-3.6,8-8s-3.6-8-8-8s-8,3.6-8,8S228.6,418,233,418z"/>
</g>
<g>
	<path class="st11" d="M233.9,408.9v-1.4h2.9v-2.2h-8v2.2h2.9v1.4c-2.4,0.1-4.2,0.7-4.2,1.3c0,0.6,1.8,1.2,4.2,1.3v4.5h2.2v-4.5
		c2.4-0.1,4.2-0.7,4.2-1.3C238.1,409.5,236.3,409,233.9,408.9z M232.8,411c-2.6,0-4.7-0.4-4.7-1c0-0.5,1.5-0.8,3.6-0.9v1.6
		c0.4,0,0.7,0,1.1,0c0.4,0,0.8,0,1.1,0v-1.6c2.1,0.1,3.6,0.5,3.6,0.9C237.5,410.6,235.4,411,232.8,411z"/>
</g>
<linearGradient id="SVGID_3_" gradientUnits="userSpaceOnUse" x1="239.4899" y1="265.6694" x2="107.8268" y2="88.7864" gradientTransform="matrix(1 0 0 -1 0 442)">
	<stop  offset="0" style="stop-color:#AA1FFF"/>
	<stop  offset="1" style="stop-color:#2BA1FF"/>
</linearGradient>
<path class="st12" d="M15,241h314c3.9,0,7,3.1,7,7v38c0,3.9-3.1,7-7,7H15c-3.9,0-7-3.1-7-7v-38C8,244.1,11.1,241,15,241z"/>
<linearGradient id="SVGID_4_" gradientUnits="userSpaceOnUse" x1="239.4899" y1="205.6694" x2="107.8268" y2="28.7864" gradientTransform="matrix(1 0 0 -1 0 442)">
	<stop  offset="0" style="stop-color:#AA1FFF"/>
	<stop  offset="1" style="stop-color:#2BA1FF"/>
</linearGradient>
<path class="st13" d="M15,301h314c3.9,0,7,3.1,7,7v38c0,3.9-3.1,7-7,7H15c-3.9,0-7-3.1-7-7v-38C8,304.1,11.1,301,15,301z"/>
<path class="st1" d="M329,292.5H15c-3.6,0-6.5-2.9-6.5-6.5v-38c0-3.6,2.9-6.5,6.5-6.5h173.2c5.8,0,11.4,2.3,15.4,6.5l5,5.2
	c4.2,4.4,10.1,6.8,16.1,6.8H331c2.5,0,4.5,2,4.5,4.5V286C335.5,289.6,332.6,292.5,329,292.5z"/>
<path class="st1" d="M329,352.5H15c-3.6,0-6.5-2.9-6.5-6.5v-38c0-3.6,2.9-6.5,6.5-6.5h207.2c5.8,0,11.4,2.3,15.4,6.5l5,5.2
	c4.2,4.4,10.1,6.8,16.1,6.8H331c2.5,0,4.5,2,4.5,4.5V346C335.5,349.6,332.6,352.5,329,352.5z"/>
<path d="M29,271h286c2.2,0,4,1.8,4,4l0,0c0,2.2-1.8,4-4,4H29c-2.2,0-4-1.8-4-4l0,0C25,272.8,26.8,271,29,271z"/>
<path d="M29,331h286c2.2,0,4,1.8,4,4l0,0c0,2.2-1.8,4-4,4H29c-2.2,0-4-1.8-4-4l0,0C25,332.8,26.8,331,29,331z"/>
<g>
	
		<linearGradient id="SVGID_5_" gradientUnits="userSpaceOnUse" x1="86.6177" y1="186.3817" x2="73.6857" y2="148.5067" gradientTransform="matrix(1 0 0 -1 0 442)">
		<stop  offset="0" style="stop-color:#AA1FFF"/>
		<stop  offset="1" style="stop-color:#2BA1FF"/>
	</linearGradient>
	<path class="st14" d="M29,271h102c2.2,0,4,1.8,4,4l0,0c0,2.2-1.8,4-4,4H29c-2.2,0-4-1.8-4-4l0,0C25,272.8,26.8,271,29,271z"/>
</g>
<g>
	
		<linearGradient id="SVGID_6_" gradientUnits="userSpaceOnUse" x1="117.4257" y1="127.7356" x2="108.7927" y2="87.2876" gradientTransform="matrix(1 0 0 -1 0 442)">
		<stop  offset="0" style="stop-color:#AA1FFF"/>
		<stop  offset="1" style="stop-color:#2BA1FF"/>
	</linearGradient>
	<path class="st15" d="M29,331h168c2.2,0,4,1.8,4,4l0,0c0,2.2-1.8,4-4,4H29c-2.2,0-4-1.8-4-4l0,0C25,332.8,26.8,331,29,331z"/>
</g>
<g>
	<path class="st16" d="M336,152V15c0-4.4-3.6-8-8-8L16,7c-4.4,0-8,3.6-8,8v112c0,18.2,14.8,33,33,33h287
		C332.4,160,336,156.4,336,152z"/>
	<path class="st17" d="M336.5,152V15c0-4.7-3.8-8.5-8.5-8.5l-312,0c-4.7,0-8.5,3.8-8.5,8.5v112c0,18.5,15,33.5,33.5,33.5h287
		C332.7,160.5,336.5,156.7,336.5,152z"/>
</g>
<image style="overflow:visible;" width="330" height="155" xlink:href=""  transform="matrix(1 0 0 1 7 6)" class="centerlogo">
</image>
<path class="st18" d="M336,152V15c0-4.4-3.6-8-8-8L16,7c-4.4,0-8,3.6-8,8v112c0,18.2,14.8,33,33,33h287C332.4,160,336,156.4,336,152
	z"/>
<path class="st11" d="M32.2,138.8h-9.4l-2.3,4.5H14L27.6,118h7.1l4.7,25.3h-6.5L32.2,138.8z M31.5,134.1l-1.5-9.4l-4.8,9.4H31.5z"/>
<path class="st6" d="M39,138.8h5l0.7,4.5h6.5L46.6,118h-7.1l-3.2,5.9l1.6,8.6l4-7.7l1.5,9.4h-5.1L39,138.8z"/>
<path class="st6" d="M51,138.8h5l0.7,4.5h6.5L58.6,118h-7.1l-3.2,5.9l1.6,8.6l4-7.7l1.5,9.4h-5.1L51,138.8z"/>
<g>
	<path class="st2" d="M84,129c0,21-17,38-38,38S8,150,8,129s17-38,38-38S84,108,84,129z"/>
</g>
<path class="st19" d="M46,168.5c21.8,0,39.5-17.7,39.5-39.5S67.8,89.5,46,89.5c-21.8,0-39.5,17.7-39.5,39.5S24.2,168.5,46,168.5z"/>
<g>
	<path class="st11 star3" d="M225.1,54.3l0.4,3.3c0.4,2.7,2.1,5.1,4.6,6.3l0,0l0,0c-2.5,1.2-4.2,3.6-4.6,6.3l-0.4,3.3l-0.4-3.3
		c-0.4-2.7-2.1-5.1-4.6-6.3l0,0l0,0c2.5-1.2,4.2-3.6,4.6-6.3L225.1,54.3z"/>
</g>
<g>
	<path class="st11 star1" d="M121.8,42.8l0.9,5.2c1,5.4,4.8,9.8,10,11.5l1.8,0.6l-1.8,0.6c-5.2,1.7-9,6.2-10,11.5l-0.9,5.2l-0.9-5.2
		c-1-5.4-4.8-9.8-10-11.5l-1.8-0.6l1.8-0.6c5.2-1.7,9-6.2,10-11.5L121.8,42.8z"/>
</g>
<g>
	<path class="st11 star2" d="M213.5,104.4l1.1,7c0.5,3.5,2.9,6.5,6.1,7.8l2.4,1l-2.4,1c-3.3,1.3-5.6,4.3-6.1,7.8l-1.1,7l-1.1-7
		c-0.5-3.5-2.9-6.5-6.1-7.8l-2.4-1l2.4-1c3.3-1.3,5.6-4.3,6.1-7.8L213.5,104.4z"/>
</g>
<rect x="139.9" y="32" class="st16" width="73.2" height="98.6"/>
<image style="overflow:visible;" width="184" height="172" xlink:href=""  transform="matrix(0.25 0 0 0.25 22.4849 108.136)" class="badge">
</image>
<image style="overflow:visible;" width="294" height="395" xlink:href=""  transform="matrix(0.25 0 0 0.25 139.934 32)"  class="bg">
</image>
<linearGradient id="SVGID_7_" gradientUnits="userSpaceOnUse" x1="168.9597" y1="359.5117" x2="175.6837" y2="335.7527" gradientTransform="matrix(1 0 0 -1 0 442)">
	<stop  offset="0" style="stop-color:#FFFFFF"/>
	<stop  offset="1" style="stop-color:#FFFFFF;stop-opacity:0"/>
</linearGradient>
<path class="st20" d="M237.2,75.3c0.6,2.4-0.4,5.2-3.1,8.4c-2.7,3.1-6.9,6.4-12.3,9.8c-10.9,6.6-26.7,13.2-44.9,18.1
	c-18.1,4.9-35.1,7.2-47.9,7c-6.4-0.1-11.7-0.9-15.6-2.2c-3.9-1.4-6.2-3.3-6.9-5.7c-0.6-2.4,0.4-5.2,3.1-8.4
	c2.7-3.1,6.9-6.4,12.3-9.8c10.9-6.6,26.7-13.2,44.9-18.1c18.1-4.9,35.1-7.2,47.9-7c6.4,0.1,11.7,0.9,15.6,2.2
	C234.2,71,236.6,72.9,237.2,75.3z"/>
<linearGradient id="SVGID_8_" gradientUnits="userSpaceOnUse" x1="168.3717" y1="338.5073" x2="174.6477" y2="367.197" gradientTransform="matrix(1 0 0 -1 0 442)">
	<stop  offset="0" style="stop-color:#FFFFFF"/>
	<stop  offset="1" style="stop-color:#FFFFFF;stop-opacity:0"/>
</linearGradient>
<path class="st21" d="M238.4,99.6c-0.5,2.4-2.6,4.5-6.4,6.2c-3.8,1.6-9,2.8-15.4,3.4c-12.7,1.2-29.8,0.1-48.3-3.4
	c-18.4-3.5-34.7-8.9-46.1-14.7c-5.7-2.9-10.1-5.9-13-8.8c-2.9-2.9-4.1-5.7-3.7-8.1c0.5-2.4,2.6-4.5,6.4-6.2c3.8-1.6,9-2.8,15.4-3.4
	c12.7-1.2,29.8-0.1,48.3,3.4c18.4,3.5,34.7,8.9,46.1,14.7c5.7,2.9,10.1,5.9,13,8.8C237.7,94.4,238.9,97.1,238.4,99.6z"/>
<g>
	<path class="st22" d="M294.1,184.3v1.1c0,0.1-0.1,0.2-0.2,0.2h-6.5c-0.5,0-0.9,0.4-0.9,0.9c0,0.1-0.1,0.1-0.2,0.1h-1
		c-0.1,0-0.2-0.1-0.2-0.2c0.1-1.3,1-2.3,2.2-2.3h6.5C294,184.1,294.1,184.2,294.1,184.3z M292.8,190.7c0-0.6-0.5-0.9-0.9-0.9h-4.4
		c-1.1,0-2-0.9-2.2-2.1c0-0.1,0.1-0.2,0.2-0.2h1c0.1,0,0.1,0.1,0.2,0.1c0.1,0.4,0.5,0.8,0.9,0.8h4.4c1.2,0,2.2,0.9,2.2,2.3v0.6
		c0,0.9-0.3,1.7-1,2.2c-0.3,0.3-0.7,0.4-1.3,0.4h-6.6c-0.1,0-0.2-0.1-0.2-0.2v-1.1c0-0.1,0.1-0.2,0.2-0.2h6.5c0.5,0,0.9-0.4,0.9-1
		V190.7L292.8,190.7z"/>
	<path class="st22" d="M305.2,185.6h-8.7c-0.1,0-0.2-0.1-0.2-0.2v-1.1c0-0.1,0.1-0.2,0.2-0.2h8.7c0.1,0,0.2,0.1,0.2,0.2v1.1
		C305.4,185.5,305.3,185.6,305.2,185.6z"/>
	<path class="st22" d="M305.2,194h-8.7c-0.1,0-0.2-0.1-0.2-0.2v-1.1c0-0.1,0.1-0.2,0.2-0.2h8.7c0.1,0,0.2,0.1,0.2,0.2v1.1
		C305.4,193.9,305.3,194,305.2,194z"/>
	<path class="st22" d="M305.2,189.8h-8.7c-0.1,0-0.2-0.1-0.2-0.2v-1.1c0-0.1,0.1-0.2,0.2-0.2h8.7c0.1,0,0.2,0.1,0.2,0.2v1.1
		C305.4,189.7,305.3,189.8,305.2,189.8z"/>
	<path class="st22" d="M316.6,185.6h-8.7c-0.1,0-0.2-0.1-0.2-0.2v-1.1c0-0.1,0.1-0.2,0.2-0.2h8.7c0.1,0,0.2,0.1,0.2,0.2v1.1
		C316.7,185.5,316.7,185.6,316.6,185.6z"/>
	<path class="st22" d="M316.6,194h-8.7c-0.1,0-0.2-0.1-0.2-0.2v-1.1c0-0.1,0.1-0.2,0.2-0.2h8.7c0.1,0,0.2,0.1,0.2,0.2v1.1
		C316.7,193.9,316.7,194,316.6,194z"/>
	<path class="st22" d="M316.6,189.8h-8.7c-0.1,0-0.2-0.1-0.2-0.2v-1.1c0-0.1,0.1-0.2,0.2-0.2h8.7c0.1,0,0.2,0.1,0.2,0.2v1.1
		C316.7,189.7,316.7,189.8,316.6,189.8z"/>
	<path class="st22" d="M316.6,185.6h-8.7c-0.1,0-0.2-0.1-0.2-0.2v-1.1c0-0.1,0.1-0.2,0.2-0.2h8.7c0.1,0,0.2,0.1,0.2,0.2v1.1
		C316.7,185.5,316.7,185.6,316.6,185.6z"/>
	<path class="st22" d="M319.1,188.5c0-0.1,0.1-0.2,0.2-0.2h6.5c0.7,0,0.9-0.6,0.9-1.5c0-0.5-0.1-1.3-0.9-1.3h-6.5
		c-0.1,0-0.2-0.1-0.2-0.2v-1.1c0-0.1,0.1-0.2,0.2-0.2h6.5c1.3,0,2.2,1.1,2.2,2.4v0.8c0,1.4-1,2.4-2.2,2.4h-0.6
		c-0.1,0-0.2,0.2-0.1,0.2l2.8,3.6c0.1,0.1,0,0.3-0.1,0.3h-1.3c-0.1,0-0.1,0-0.1-0.1l-3.1-4c-0.1-0.1-0.1-0.1-0.1-0.1h-2.4
		c-0.1,0-0.2,0.1-0.2,0.2v3.8c0,0.1-0.1,0.2-0.2,0.2h-1c-0.1,0-0.2-0.1-0.2-0.2V188.5L319.1,188.5z"/>
	<path class="st22" d="M270.1,199.1c5,0,9.1-4.5,9.1-10c0-5.5-4.1-10-9.1-10s-9.1,4.5-9.1,10C261,194.6,265.1,199.1,270.1,199.1z"/>
	<path class="st23" d="M266.8,185.8v7.1c0,0.8-0.6,1.8-1,2.3c-0.1,0.1-0.1,0.3,0.1,0.3h0.8h0.3h3c1.7,0,3.1-1.5,3.1-3.4v-6.6
		c0.1-0.8,0.8-2,1.2-2.6c0.1-0.1,0-0.3-0.1-0.3h-1h-3.6C268.1,182.6,266.8,184,266.8,185.8z M271.2,184.8c0,0.4-0.3,0.8-0.7,0.8
		c-0.4,0-0.7-0.4-0.7-0.8c0-0.5,0.3-0.8,0.7-0.8C270.9,184,271.2,184.3,271.2,184.8z"/>
</g>
<text transform="matrix(1 0 0 1 14.0793 195.5764)" class="tf st11 st24 st25">NO-8888.eco</text>
<text transform="matrix(1 0 0 1 254.327 225.0782)" class="tf st22 st26 st27">NO. SE00001</text>
<text transform="matrix(1 0 0 1 14.0792 223.0782)" class="tf st22 st28 st29">DSN</text>
<text transform="matrix(1 0 0 1 220.0531 256.5284)" class="tf st30 st31 st27">20,000 / 100.000</text>
<text transform="matrix(1 0 0 1 275.8804 314.5001)" class="tf st30 st31 st27">60%</text>
<text transform="matrix(1 0 0 1 25.0001 260.6149)" class="tf st30 st32 st27">USER</text>
<text transform="matrix(1 0 0 1 25.0001 320.3416)" class="tf st30 st32 st27">MEMORY  LOAD</text>
<text transform="matrix(1 0 0 1 41.6501 383.5577)" class="tf st30 st32 st27">24H AOE SEER</text>
<text transform="matrix(1 0 0 1 213.9063 383.5577)" class="tf st30 st32 st27">24H ADS USDT</text>
<text transform="matrix(1 0 0 1 79.2007 414.899)" class="tf st33 st31 st27">70000</text>
<text transform="matrix(1 0 0 1 251.7881 414.899)" class="tf st34 st31 st27">70000</text>
</svg>
