<svg width="743" height="495" viewBox="0 0 743 495" fill="none" xmlns="http://www.w3.org/2000/svg">
<path opacity="0.3" fill-rule="evenodd" clip-rule="evenodd" d="M247.5 0C110.81 0 0 110.81 0 247.5C0 384.19 110.81 495 247.5 495H495.5C632.19 495 743 384.19 743 247.5C743 110.81 632.19 0 495.5 0H247.5ZM208.501 80C114.337 80 38.0015 156.335 38.0015 250.5C38.0015 344.665 114.337 421 208.501 421H534.501C628.666 421 705.001 344.665 705.001 250.5C705.001 156.335 628.666 80 534.501 80H208.501Z" fill="url(#paint0_linear_1942_11516)"/>
<path fill-rule="evenodd" clip-rule="evenodd" d="M194.971 33.1429C195.603 32.6064 195.679 31.6598 195.143 31.0286C194.606 30.3973 193.66 30.3206 193.029 30.8571L183.029 39.3571C182.699 39.6373 182.506 40.0462 182.5 40.4788C182.494 40.9114 182.675 41.3256 182.997 41.615L192.997 50.615C193.612 51.1692 194.561 51.1192 195.115 50.5035C195.669 49.8877 195.619 48.9393 195.003 48.3851L186.278 40.5323L194.971 33.1429ZM206.143 31.0286C206.679 31.6598 206.603 32.6064 205.971 33.1429L197.278 40.5323L206.003 48.3851C206.619 48.9393 206.669 49.8877 206.115 50.5035C205.561 51.1192 204.612 51.1692 203.997 50.615L193.997 41.615C193.675 41.3256 193.494 40.9114 193.5 40.4788C193.506 40.0462 193.699 39.6373 194.029 39.3571L204.029 30.8571C204.66 30.3206 205.606 30.3973 206.143 31.0286ZM217.143 31.0286C217.679 31.6598 217.603 32.6064 216.971 33.1429L208.278 40.5323L217.003 48.3851C217.619 48.9393 217.669 49.8877 217.115 50.5035C216.561 51.1192 215.612 51.1692 214.997 50.615L204.997 41.615C204.675 41.3256 204.494 40.9114 204.5 40.4788C204.506 40.0462 204.699 39.6373 205.029 39.3571L215.029 30.8571C215.66 30.3206 216.606 30.3973 217.143 31.0286Z" fill="url(#paint1_radial_1942_11516)"/>
<path fill-rule="evenodd" clip-rule="evenodd" d="M536.471 33.1429C537.103 32.6064 537.179 31.6598 536.643 31.0286C536.106 30.3973 535.16 30.3206 534.529 30.8571L524.529 39.3571C524.199 39.6373 524.006 40.0462 524 40.4788C523.994 40.9114 524.175 41.3256 524.497 41.615L534.497 50.615C535.112 51.1692 536.061 51.1192 536.615 50.5035C537.169 49.8877 537.119 48.9393 536.503 48.3851L527.778 40.5323L536.471 33.1429ZM547.643 31.0286C548.179 31.6598 548.103 32.6064 547.471 33.1429L538.778 40.5323L547.503 48.3851C548.119 48.9393 548.169 49.8877 547.615 50.5035C547.061 51.1192 546.112 51.1692 545.497 50.615L535.497 41.615C535.175 41.3256 534.994 40.9114 535 40.4788C535.006 40.0462 535.199 39.6373 535.529 39.3571L545.529 30.8571C546.16 30.3206 547.106 30.3973 547.643 31.0286ZM558.643 31.0286C559.179 31.6598 559.103 32.6064 558.471 33.1429L549.778 40.5323L558.503 48.3851C559.119 48.9393 559.169 49.8877 558.615 50.5035C558.061 51.1192 557.112 51.1692 556.497 50.615L546.497 41.615C546.175 41.3256 545.994 40.9114 546 40.4788C546.006 40.0462 546.199 39.6373 546.529 39.3571L556.529 30.8571C557.16 30.3206 558.106 30.3973 558.643 31.0286Z" fill="url(#paint2_radial_1942_11516)"/>
<path fill-rule="evenodd" clip-rule="evenodd" d="M570.232 464.596C569.533 464.151 569.328 463.224 569.772 462.525L575.899 452.9L565.246 447.97C564.494 447.622 564.166 446.731 564.514 445.979C564.862 445.227 565.754 444.9 566.506 445.248L578.715 450.897C579.108 451.079 579.403 451.421 579.525 451.837C579.647 452.252 579.583 452.699 579.351 453.064L572.303 464.136C571.858 464.835 570.931 465.041 570.232 464.596ZM580.743 461.351C580.044 460.906 579.838 459.978 580.283 459.28L586.41 449.655L575.756 444.725C575.005 444.377 574.677 443.486 575.025 442.734C575.373 441.982 576.264 441.655 577.016 442.002L589.226 447.652C589.619 447.834 589.914 448.176 590.036 448.591C590.157 449.007 590.094 449.454 589.862 449.819L582.814 460.891C582.369 461.589 581.442 461.795 580.743 461.351ZM590.793 456.035C590.349 456.733 590.554 457.661 591.253 458.105C591.952 458.55 592.879 458.344 593.324 457.646L600.372 446.574C600.604 446.209 600.668 445.762 600.546 445.346C600.424 444.931 600.129 444.589 599.736 444.407L587.527 438.757C586.775 438.409 585.883 438.737 585.535 439.489C585.187 440.241 585.515 441.132 586.267 441.48L596.92 446.41L590.793 456.035Z" fill="url(#paint3_radial_1942_11516)"/>
<path fill-rule="evenodd" clip-rule="evenodd" d="M144.232 435.904C143.533 436.349 143.328 437.276 143.772 437.975L149.899 447.6L139.246 452.53C138.494 452.878 138.166 453.769 138.514 454.521C138.862 455.273 139.754 455.6 140.506 455.252L152.715 449.603C153.108 449.421 153.403 449.079 153.525 448.663C153.647 448.248 153.583 447.801 153.351 447.436L146.303 436.364C145.858 435.665 144.931 435.459 144.232 435.904ZM154.743 439.149C154.044 439.594 153.838 440.522 154.283 441.22L160.41 450.845L149.756 455.775C149.005 456.123 148.677 457.014 149.025 457.766C149.373 458.518 150.264 458.845 151.016 458.498L163.226 452.848C163.619 452.666 163.914 452.324 164.036 451.909C164.157 451.493 164.094 451.046 163.862 450.681L156.814 439.609C156.369 438.911 155.442 438.705 154.743 439.149ZM164.793 444.465C164.349 443.767 164.554 442.839 165.253 442.395C165.952 441.95 166.879 442.156 167.324 442.854L174.372 453.926C174.604 454.291 174.668 454.738 174.546 455.154C174.424 455.569 174.129 455.911 173.736 456.093L161.527 461.743C160.775 462.091 159.883 461.763 159.535 461.011C159.187 460.259 159.515 459.368 160.267 459.02L170.92 454.09L164.793 444.465Z" fill="url(#paint4_radial_1942_11516)"/>
<defs>
<linearGradient id="paint0_linear_1942_11516" x1="760.146" y1="121.861" x2="1.16544" y2="364.504" gradientUnits="userSpaceOnUse">
<stop stop-color="#AA1FFF"/>
<stop offset="1" stop-color="#2BA1FF"/>
</linearGradient>
<radialGradient id="paint1_radial_1942_11516" cx="0" cy="0" r="1" gradientUnits="userSpaceOnUse" gradientTransform="translate(183 41) rotate(-2.09525) scale(41.0274 25.4168)">
<stop stop-color="white"/>
<stop offset="1" stop-color="white" stop-opacity="0"/>
</radialGradient>
<radialGradient id="paint2_radial_1942_11516" cx="0" cy="0" r="1" gradientUnits="userSpaceOnUse" gradientTransform="translate(524.5 41) rotate(-2.09525) scale(41.0274 25.4168)">
<stop stop-color="white"/>
<stop offset="1" stop-color="white" stop-opacity="0"/>
</radialGradient>
<radialGradient id="paint3_radial_1942_11516" cx="0" cy="0" r="1" gradientUnits="userSpaceOnUse" gradientTransform="translate(599.915 444.996) rotate(160.749) scale(41.0276 25.4177)">
<stop stop-color="white"/>
<stop offset="1" stop-color="white" stop-opacity="0"/>
</radialGradient>
<radialGradient id="paint4_radial_1942_11516" cx="0" cy="0" r="1" gradientUnits="userSpaceOnUse" gradientTransform="translate(173.915 455.504) rotate(-160.749) scale(41.0276 25.4177)">
<stop stop-color="white"/>
<stop offset="1" stop-color="white" stop-opacity="0"/>
</radialGradient>
</defs>
</svg>
