<svg width="81" height="86" viewBox="0 0 81 86" fill="none" xmlns="http://www.w3.org/2000/svg">
<path d="M62.3903 19.0381L72.7924 45.2168C73.697 47.4932 73.2806 50.2907 71.8459 52.1734L56.4419 71.6362C55.6112 72.8416 54.2524 73.8166 52.9315 74.3377L39.9665 41.7092L60.1654 16.1854C61.1083 16.9106 61.938 17.8999 62.3903 19.0381Z" fill="white"/>
<path d="M62.3903 19.0381L72.7924 45.2168C73.697 47.4932 73.2806 50.2907 71.8459 52.1734L56.4419 71.6362C55.6112 72.8416 54.2524 73.8166 52.9315 74.3377L39.9665 41.7092L60.1654 16.1854C61.1083 16.9106 61.938 17.8999 62.3903 19.0381Z" fill="url(#paint0_linear_1237_18037)"/>
<path d="M39.9096 41.7705L52.8746 74.399C51.5537 74.9201 50.0821 75.0618 48.4597 74.8241L23.8596 71.1435C21.3316 70.8242 19.3703 69.1841 18.3904 66.718L7.9882 40.5394C7.53594 39.4012 7.46106 38.1141 7.65027 36.9422L39.9096 41.7705Z" fill="white"/>
<path d="M39.9096 41.7705L52.8746 74.399C51.5537 74.9201 50.0821 75.0618 48.4597 74.8241L23.8596 71.1435C21.3316 70.8242 19.3703 69.1841 18.3904 66.718L7.9882 40.5394C7.53594 39.4012 7.46106 38.1141 7.65027 36.9422L39.9096 41.7705Z" fill="url(#paint1_linear_1237_18037)"/>
<path d="M60.215 16.2164L39.9854 41.7781L7.67111 36.9457C7.86061 35.7721 7.98101 34.4059 8.88844 33.3886L24.7318 13.2932C26.1687 11.4078 28.6255 10.4386 31.0818 10.5683L57.1548 14.5668C57.1548 14.5668 57.6334 14.6291 58.2198 14.8375C58.8061 15.046 59.4595 15.4156 60.215 16.2164Z" fill="white"/>
<path d="M60.215 16.2164L39.9854 41.7781L7.67111 36.9457C7.86061 35.7721 7.98101 34.4059 8.88844 33.3886L24.7318 13.2932C26.1687 11.4078 28.6255 10.4386 31.0818 10.5683L57.1548 14.5668C57.1548 14.5668 57.6334 14.6291 58.2198 14.8375C58.8061 15.046 59.4595 15.4156 60.215 16.2164Z" fill="url(#paint2_linear_1237_18037)" fill-opacity="0.74"/>
<defs>
<linearGradient id="paint0_linear_1237_18037" x1="43" y1="42.5" x2="73" y2="50" gradientUnits="userSpaceOnUse">
<stop stop-color="#FF77B1"/>
<stop offset="1" stop-color="#2056FF"/>
</linearGradient>
<linearGradient id="paint1_linear_1237_18037" x1="38" y1="45.5" x2="26" y2="67.5" gradientUnits="userSpaceOnUse">
<stop stop-color="#FF77B1"/>
<stop offset="1" stop-color="#2056FF"/>
</linearGradient>
<linearGradient id="paint2_linear_1237_18037" x1="27.6948" y1="11.106" x2="39.8194" y2="41.8392" gradientUnits="userSpaceOnUse">
<stop stop-color="#2056FF"/>
<stop offset="0.927083" stop-color="#FF5BDB"/>
</linearGradient>
</defs>
</svg>
