<svg width="99" height="95" viewBox="0 0 99 95" fill="none" xmlns="http://www.w3.org/2000/svg">
<g filter="url(#filter0_f_1237_18029)">
<path d="M27.214 16.5125L59.1783 10.2919C61.9578 9.75099 65.0602 10.8395 66.9112 12.8968L85.9295 34.8211C87.1327 36.0374 87.9649 37.8095 88.2878 39.4389C88.6107 41.0683 88.4703 42.7879 87.8667 44.5976L78.6267 72.0213C77.7443 74.8522 75.4731 76.7447 72.462 77.3307L40.4977 83.5513C39.1079 83.8217 37.626 83.6266 36.3295 83.1537C35.033 82.6808 33.6903 81.9751 32.7187 80.7136L13.0988 58.1811C11.2478 56.1239 10.6482 53.0978 11.299 50.3119C11.299 50.3119 11.2529 50.0791 11.4845 50.0341L21.0032 21.5891C21.0032 21.5891 20.9571 21.3564 21.1887 21.3113C21.1887 21.3113 21.1887 21.3113 21.1426 21.0785C21.6069 19.7794 22.395 18.9008 23.4148 17.9771C24.5268 17.5189 25.5926 16.828 27.214 16.5125Z" fill="white"/>
<path d="M26.7687 16.5642L59.052 10.2536C61.8592 9.70483 64.9896 10.7943 66.8548 12.8602L86.018 34.8773C87.2307 36.0986 88.0679 37.8793 88.391 39.5175L48.1539 47.3828L23.0226 18.5117C24.0538 17.581 25.3651 16.8386 26.7687 16.5642Z" fill="white"/>
<path d="M26.7687 16.5642L59.052 10.2536C61.8592 9.70483 64.9896 10.7943 66.8548 12.8602L86.018 34.8773C87.2307 36.0986 88.0679 37.8793 88.391 39.5175L48.1539 47.3828L23.0226 18.5117C24.0538 17.581 25.3651 16.8386 26.7687 16.5642Z" fill="url(#paint0_linear_1237_18029)" fill-opacity="0.84"/>
<path d="M48.1122 47.3111L88.3493 39.4458C88.6724 41.0839 88.5277 42.8136 87.9151 44.6346L78.538 72.2307C77.6421 75.0793 75.3458 76.9865 72.3046 77.581L40.0214 83.8916C38.6177 84.1659 37.1218 83.9723 35.8136 83.4988L48.1122 47.3111Z" fill="white"/>
<path d="M48.1122 47.3111L88.3493 39.4458C88.6724 41.0839 88.5277 42.8136 87.9151 44.6346L78.538 72.2307C77.6421 75.0793 75.3458 76.9865 72.3046 77.581L40.0214 83.8916C38.6177 84.1659 37.1218 83.9723 35.8136 83.4988L48.1122 47.3111Z" fill="url(#paint1_linear_1237_18029)" fill-opacity="0.84"/>
<path d="M22.9848 18.5476L48.0887 47.3852L35.8054 83.5389C34.4986 83.066 32.9565 82.6309 31.9788 81.3654L12.2308 58.7638C10.3676 56.7003 9.76815 53.6616 10.4293 50.8619L20.4542 21.7126C20.4542 21.7126 20.6255 21.1751 20.9869 20.5453C21.3483 19.9155 21.9086 19.2434 22.9848 18.5476Z" fill="white"/>
<path d="M22.9848 18.5476L48.0887 47.3852L35.8054 83.5389C34.4986 83.066 32.9565 82.6309 31.9788 81.3654L12.2308 58.7638C10.3676 56.7003 9.76815 53.6616 10.4293 50.8619L20.4542 21.7126C20.4542 21.7126 20.6255 21.1751 20.9869 20.5453C21.3483 19.9155 21.9086 19.2434 22.9848 18.5476Z" fill="url(#paint2_linear_1237_18029)" fill-opacity="0.84"/>
</g>
<defs>
<filter id="filter0_f_1237_18029" x="0.169281" y="0.112427" width="98.3474" height="93.905" filterUnits="userSpaceOnUse" color-interpolation-filters="sRGB">
<feFlood flood-opacity="0" result="BackgroundImageFix"/>
<feBlend mode="normal" in="SourceGraphic" in2="BackgroundImageFix" result="shape"/>
<feGaussianBlur stdDeviation="5" result="effect1_foregroundBlur_1237_18029"/>
</filter>
<linearGradient id="paint0_linear_1237_18029" x1="56" y1="37.5" x2="71" y2="2" gradientUnits="userSpaceOnUse">
<stop offset="0.0326888" stop-color="#EB4AEE"/>
<stop offset="1" stop-color="#F4246F"/>
</linearGradient>
<linearGradient id="paint1_linear_1237_18029" x1="49.5" y1="49" x2="79.5" y2="74" gradientUnits="userSpaceOnUse">
<stop offset="0.0326888" stop-color="#EB4AEE"/>
<stop offset="1" stop-color="#F4246F"/>
</linearGradient>
<linearGradient id="paint2_linear_1237_18029" x1="43.5" y1="42" x2="13.4216" y2="32.1703" gradientUnits="userSpaceOnUse">
<stop offset="0.0326888" stop-color="#EB4AEE"/>
<stop offset="1" stop-color="#F4246F"/>
</linearGradient>
</defs>
</svg>
