<?xml version="1.0" encoding="UTF-8"?>
<svg width="22px" height="22px" viewBox="0 0 22 22" version="1.1" xmlns="http://www.w3.org/2000/svg" xmlns:xlink="http://www.w3.org/1999/xlink">
    <title>bw_seer</title>
    <g id="bw_seer" stroke="none" stroke-width="1" fill="none" fill-rule="evenodd">
        <g id="Vector" transform="translate(3.395813, 0.799988)" fill="#000000" fill-rule="nonzero">
            <path d="M14.9040868,-7.77156117e-16 C15.1040868,-7.77156117e-16 15.3040868,0.300002 15.1040868,0.5 C14.4040868,1.400002 13.1040868,3.400002 13.0040868,4.600002 L13.0040868,15.100012 C13.0040868,18.100012 10.6040868,20.500012 7.60405684,20.500012 L0.304051835,20.500012 C0.00405183549,20.500012 -0.0959481645,20.200012 0.104051835,20.000012 C0.704056835,19.200012 1.80404684,17.700012 1.80404684,16.400012 L1.80404684,5 C1.80404684,2.200002 4.00405684,-7.77156117e-16 6.80405684,-7.77156117e-16 L14.9040868,-7.77156117e-16 Z M9.30421684,1.100036 C8.58624284,1.100036 8.00421084,1.682062 8.00421084,2.400032 C8.00421084,3.118002 8.58624284,3.700032 9.30421684,3.700032 C10.0221868,3.700032 10.6042168,3.118002 10.6042168,2.400032 C10.6042168,1.682062 10.0221868,1.100036 9.30421684,1.100036 Z" id="Combined-Shape"></path>
        </g>
    </g>
</svg>