<svg width="26" height="26" viewBox="0 0 26 26" fill="none" xmlns="http://www.w3.org/2000/svg">
<path d="M23.0206 20.0092L21.2331 20.4317C20.8323 20.5292 20.5181 20.8325 20.4314 21.2334L20.0523 22.8259C19.8464 23.6925 18.7414 23.9634 18.1673 23.2809L14.9281 19.5542C14.6681 19.2509 14.8089 18.7742 15.1989 18.6767C17.1164 18.2109 18.8389 17.1384 20.1064 15.6109C20.3123 15.3617 20.6806 15.3292 20.9081 15.5567L23.3131 17.9617C24.1364 18.785 23.8439 19.8142 23.0206 20.0092Z" fill="url(#paint0_linear_1698_18151)"/>
<path d="M2.92493 20.0092L4.71243 20.4317C5.11327 20.5292 5.42743 20.8325 5.5141 21.2334L5.89327 22.8259C6.0991 23.6925 7.2041 23.9634 7.77827 23.2809L11.0174 19.5542C11.2774 19.2509 11.1366 18.7742 10.7466 18.6767C8.8291 18.2109 7.1066 17.1384 5.8391 15.6109C5.63327 15.3617 5.26493 15.3292 5.03743 15.5567L2.63243 17.9617C1.8091 18.785 2.1016 19.8142 2.92493 20.0092Z" fill="url(#paint1_linear_1698_18151)"/>
<path d="M12.9998 2.16675C8.80734 2.16675 5.4165 5.55758 5.4165 9.75008C5.4165 11.3209 5.88234 12.7617 6.684 13.9642C7.854 15.6976 9.7065 16.9217 11.8623 17.2359C12.2307 17.3009 12.6098 17.3334 12.9998 17.3334C13.3898 17.3334 13.769 17.3009 14.1373 17.2359C16.2932 16.9217 18.1457 15.6976 19.3157 13.9642C20.1173 12.7617 20.5832 11.3209 20.5832 9.75008C20.5832 5.55758 17.1923 2.16675 12.9998 2.16675ZM16.3148 9.51175L15.4157 10.4109C15.264 10.5626 15.1773 10.8551 15.2315 11.0717L15.4915 12.1876C15.6973 13.0651 15.2315 13.4117 14.4515 12.9459L13.3682 12.3067C13.1732 12.1876 12.8482 12.1876 12.6532 12.3067L11.5698 12.9459C10.7898 13.4009 10.324 13.0651 10.5298 12.1876L10.7898 11.0717C10.8332 10.8659 10.7573 10.5626 10.6057 10.4109L9.68484 9.51175C9.154 8.98091 9.32734 8.45008 10.064 8.33091L11.2232 8.13592C11.4182 8.10342 11.6457 7.93008 11.7323 7.75675L12.3715 6.47842C12.7182 5.78508 13.2815 5.78508 13.6282 6.47842L14.2673 7.75675C14.354 7.93008 14.5815 8.10342 14.7873 8.13592L15.9465 8.33091C16.6723 8.45008 16.8457 8.98091 16.3148 9.51175Z" fill="url(#paint2_linear_1698_18151)"/>
<defs>
<linearGradient id="paint0_linear_1698_18151" x1="24.0113" y1="17.4375" x2="14.3885" y2="19.672" gradientUnits="userSpaceOnUse">
<stop stop-color="#AA1FFF"/>
<stop offset="1" stop-color="#2BA1FF"/>
</linearGradient>
<linearGradient id="paint1_linear_1698_18151" x1="11.3575" y1="17.4375" x2="1.73465" y2="19.672" gradientUnits="userSpaceOnUse">
<stop stop-color="#AA1FFF"/>
<stop offset="1" stop-color="#2BA1FF"/>
</linearGradient>
<linearGradient id="paint2_linear_1698_18151" x1="20.9332" y1="5.90053" x2="4.59786" y2="9.37975" gradientUnits="userSpaceOnUse">
<stop stop-color="#AA1FFF"/>
<stop offset="1" stop-color="#2BA1FF"/>
</linearGradient>
</defs>
</svg>
