<svg width="26" height="26" viewBox="0 0 26 26" fill="none" xmlns="http://www.w3.org/2000/svg">
<g clip-path="url(#clip0_1698_18120)">
<path d="M23.3533 8.09957C23.3533 7.85568 23.3486 7.61455 23.3378 7.37506C24.3804 6.59822 25.285 5.62578 26.0004 4.51301C25.0288 4.95018 23.995 5.23303 22.9361 5.35135C24.0381 4.6732 24.8833 3.58864 25.2826 2.2871C24.2508 2.91287 23.1095 3.36025 21.8959 3.59336C20.9236 2.48696 19.536 1.78226 18.002 1.75607C15.056 1.70737 12.6679 4.19694 12.6679 7.31595C12.6679 7.75928 12.7142 8.18923 12.8063 8.60441C8.36994 8.31893 4.43878 6.00973 1.80916 2.5286C1.35032 3.36263 1.08707 4.33736 1.08707 5.38194C1.08707 7.35763 2.02883 9.11361 3.45974 10.1498C2.58375 10.1102 1.76316 9.84486 1.04341 9.40987V9.48242C1.04341 12.2437 2.88272 14.5573 5.32326 15.0971C4.87584 15.2243 4.40393 15.2905 3.91858 15.2882C3.58136 15.2864 3.24524 15.2496 2.91565 15.1783C3.59379 17.4411 5.56472 19.0943 7.89808 19.1494C6.07189 20.6636 3.77146 21.5681 1.27387 21.5618C0.843231 21.5618 0.417686 21.5329 0.000488281 21.4805C2.3621 23.1004 5.1654 24.0439 8.17893 24.0439C17.9886 24.0463 23.3533 15.5078 23.3533 8.09957V8.09957Z" fill="#5EA9DD"/>
</g>
<defs>
<clipPath id="clip0_1698_18120">
<rect width="26" height="26" fill="white"/>
</clipPath>
</defs>
</svg>
