<svg width="20" height="23" viewBox="0 0 20 23" fill="none" xmlns="http://www.w3.org/2000/svg">
<path d="M18.7159 15.5502C19.6907 13.4377 19.8317 11.1413 19.2718 9.05616C18.628 6.64955 17.0437 4.50371 14.7464 3.19995L15.7655 0.997742L9.97152 2.51694L12.5629 7.9175L13.6291 5.61341C15.1901 6.56666 16.2588 8.06019 16.711 9.74183C17.1155 11.2568 17.0163 12.9042 16.3092 14.4414C15.4081 16.3949 13.7238 17.7251 11.7951 18.244C11.5159 18.3186 11.2324 18.3757 10.9461 18.415L12.1422 20.8874C12.256 20.861 12.3688 20.8344 12.4808 20.8037C15.1363 20.0958 17.4764 18.2432 18.7159 15.5502ZM6.41837 17.4832C4.83411 16.5317 3.74916 15.0253 3.29258 13.3284C2.88823 11.8134 2.98824 10.1651 3.69441 8.6296C4.59552 6.67524 6.27981 5.34505 8.20859 4.82616C8.52842 4.74059 8.85409 4.67909 9.18329 4.63967L7.99065 2.15443C7.83418 2.18785 7.67769 2.22371 7.52291 2.26562C4.86823 2.97512 2.52741 4.82773 1.28689 7.5208C0.313976 9.63245 0.172836 11.9296 0.732852 14.0139L0.734563 14.0207C1.38345 16.4436 2.98651 18.6006 5.30947 19.9009L4.34593 22.0023L10.1339 20.4626L7.52466 15.0715L6.41837 17.4832Z" fill="#1F2226"/>
</svg>
