<svg width="24" height="24" viewBox="0 0 24 24" fill="none" class="UpdateButton_refreshIcon__1Q4fJ"><path d="M11.7949 17.8188V20L8.89749 17.0917L11.7949 14.1815V16.3641C14.185 16.3641 16.1406 14.4006 16.1406 12.0002C16.1406 11.2736 15.9239 10.5461 15.6342 9.96393L16.7199 8.87334C17.2273 9.81901 17.5889 10.8369 17.5889 12.0003C17.5889 15.2003 14.982 17.8188 11.7949 17.8188ZM11.7949 7.63681C9.40389 7.63681 7.44923 9.6004 7.44923 12.0002C7.44923 12.7273 7.666 13.4549 7.95564 14.037L6.86994 15.1271C6.36259 14.1815 6 13.164 6 12.0002C6 8.80013 8.60781 6.18218 11.7949 6.18218V4L14.6923 6.90879L11.7949 9.81903V7.63681H11.7949Z" fill="currentColor"></path></svg>