<svg width="64" height="64" viewBox="0 0 64 64" fill="none" xmlns="http://www.w3.org/2000/svg">
<rect width="64" height="64" rx="8" fill="#3A4048"/>
<path fill-rule="evenodd" clip-rule="evenodd" d="M39.5 32C38.6716 32 38 32.6716 38 33.5V48.5C38 49.3284 38.6716 50 39.5 50H54.5C55.3284 50 56 49.3284 56 48.5V33.5C56 32.6716 55.3284 32 54.5 32H39.5ZM40 37.5C39.7239 37.5 39.5 37.7239 39.5 38V48C39.5 48.2761 39.7239 48.5 40 48.5H54C54.2761 48.5 54.5 48.2761 54.5 48V38C54.5 37.7239 54.2761 37.5 54 37.5H40Z" fill="white"/>
<path d="M40.5 30.5C40.5 30.2239 40.7239 30 41 30H42C42.2761 30 42.5 30.2239 42.5 30.5V32.5C42.5 32.7761 42.2761 33 42 33H41C40.7239 33 40.5 32.7761 40.5 32.5V30.5Z" fill="white"/>
<path d="M51.5 30.5C51.5 30.2239 51.7239 30 52 30H53C53.2761 30 53.5 30.2239 53.5 30.5V32.5C53.5 32.7761 53.2761 33 53 33H52C51.7239 33 51.5 32.7761 51.5 32.5V30.5Z" fill="white"/>
<path d="M41.5 39H46.5V44H41.5V39Z" fill="white"/>
<path fill-rule="evenodd" clip-rule="evenodd" d="M9.5637 21.7561V44C9.5637 46.5366 7.39078 49.4634 6.20554 51.0244C5.81047 51.4146 6.008 52 6.60062 52H9.36616H10.5514H21.0209C26.9471 52 31.688 47.3171 31.688 41.4634V20.9756C31.8856 18.6341 34.4536 14.7317 35.8364 12.9756C36.2314 12.5854 35.8364 12 35.4413 12H31.8856H19.4406C13.9096 12 9.5637 16.2927 9.5637 21.7561ZM24.9707 18.6349C24.9707 20.0358 23.821 21.1715 22.4027 21.1715C20.9844 21.1715 19.8347 20.0358 19.8347 18.6349C19.8347 17.234 20.9844 16.0983 22.4027 16.0983C23.821 16.0983 24.9707 17.234 24.9707 18.6349Z" fill="white"/>
</svg>
