<svg width="20" height="20" viewBox="0 0 20 20" fill="none" xmlns="http://www.w3.org/2000/svg">
<path fill-rule="evenodd" clip-rule="evenodd" d="M4.25816 9.66487C4.1546 9.41496 4.06756 9.15915 3.99736 8.8991C3.85886 8.46982 3.78092 8.05683 3.78092 7.67097C3.78092 7.60068 3.78207 7.53534 3.78437 7.47477C3.78207 7.40549 3.78092 7.33613 3.78092 7.26671C3.78092 6.44375 3.94309 5.62886 4.25816 4.86854C4.57324 4.10823 5.03506 3.41739 5.61725 2.83548C6.19944 2.25356 6.89061 1.79196 7.65128 1.47702C8.41194 1.16209 9.22722 1 10.0506 1C10.8739 1 11.6892 1.16209 12.4499 1.47702C13.2105 1.79196 13.9017 2.25356 14.4839 2.83548C15.0661 3.41739 15.5279 4.10823 15.843 4.86854C16.158 5.62886 16.3202 6.44375 16.3202 7.26671C16.3202 7.33613 16.3191 7.40549 16.3168 7.47477C16.3191 7.53534 16.3202 7.60068 16.3202 7.67097C16.3202 8.05682 16.2423 8.46981 16.1038 8.89908C16.0336 9.15914 15.9465 9.41496 15.843 9.66487C15.6257 10.1892 15.3387 10.6804 14.9905 11.1257C13.1501 13.9853 10.0506 16.7752 10.0506 16.7752C10.0506 16.7752 6.95106 13.9852 5.11065 11.1257C4.76247 10.6804 4.47543 10.1892 4.25816 9.66487ZM8.56071 8.75587C8.16557 8.36092 7.94358 7.82525 7.94358 7.26671C7.94358 6.99015 7.99808 6.71629 8.10397 6.46078C8.20985 6.20527 8.36505 5.97311 8.56071 5.77755C8.75636 5.58199 8.98863 5.42686 9.24426 5.32103C9.49989 5.21519 9.77387 5.16072 10.0506 5.16072C10.3273 5.16072 10.6012 5.21519 10.8569 5.32103C11.1125 5.42686 11.3448 5.58199 11.5404 5.77755C11.7361 5.97311 11.8913 6.20527 11.9972 6.46078C12.103 6.71629 12.1575 6.99015 12.1575 7.26671C12.1575 7.82525 11.9356 8.36092 11.5404 8.75587C11.1453 9.15082 10.6094 9.3727 10.0506 9.3727C9.49176 9.3727 8.95584 9.15082 8.56071 8.75587ZM1.45508 15.2584C1.45508 14.1116 2.63338 13.0853 4.48878 12.399V14.1246C3.6622 14.4424 3.17418 14.8344 3.17418 15.2584C3.17418 16.3196 6.2302 17.1798 10 17.1798C13.7698 17.1798 16.8258 16.3196 16.8258 15.2584C16.8258 14.852 16.3775 14.475 15.6124 14.1646V12.437C17.4093 13.1229 18.5449 14.1326 18.5449 15.2584C18.5449 17.3248 14.7192 19 10 19C5.28077 19 1.45508 17.3248 1.45508 15.2584Z" fill="#50565F"/>
</svg>
