<svg width="24" height="25" viewBox="0 0 24 25" fill="none" xmlns="http://www.w3.org/2000/svg" class="markEl">
  <defs>
    <linearGradient id="grad1" x1="0%" y1="0%" x2="0%" y2="100%">
      <stop offset="0%" style="stop-color:#1f2226;stop-opacity:1" />
      <stop offset="100%" style="stop-color:#1f2226;stop-opacity:1" />
    </linearGradient>
    <linearGradient id="grad2" x1="0%" y1="0%" x2="0%" y2="100%">
      <stop offset="0%" style="stop-color:#2ba1ff;stop-opacity:1" />
      <stop offset="100%" style="stop-color:#aa1fff;stop-opacity:1" />
    </linearGradient>
  </defs>
<path d="M18.9608 5.53878C15.1225 1.6998 8.8767 1.6998 5.03842 5.53878C1.19943 9.37707 1.19943 15.6229 5.03842 19.4612C8.87673 23.3002 15.1225 23.3002 18.9608 19.4612C22.7998 15.6229 22.7998 9.37707 18.9608 5.53878ZM17.9617 18.4621C14.6742 21.7502 9.32431 21.7495 6.03753 18.4621C2.74938 15.1746 2.74938 9.82537 6.03753 6.53756C9.32431 3.25044 14.6742 3.24975 17.9617 6.53756C21.2491 9.82468 21.2491 15.1753 17.9617 18.4621Z" fill="url(#grad1)" class="mark"/>
<path d="M12.051 7.48962C11.4667 7.48962 10.9912 7.96515 10.9912 8.54975C10.9912 9.13544 11.4667 9.61166 12.051 9.61166C12.636 9.61166 13.1122 9.13544 13.1122 8.54975C13.1122 7.96515 12.636 7.48962 12.051 7.48962Z"  fill="url(#grad1)" class="mark"/>
<path d="M12.0504 10.5146C11.6098 10.5146 11.25 10.8737 11.25 11.315V17.5857C11.25 18.027 11.6098 18.3861 12.0504 18.3861C12.4918 18.3861 12.8515 18.027 12.8515 17.5857V11.315C12.8515 10.8737 12.4918 10.5146 12.0504 10.5146Z" fill="url(#grad1)" class="mark"/>
</svg>
