<svg width="20" height="20" viewBox="0 0 20 20" fill="none" xmlns="http://www.w3.org/2000/svg">
<path d="M7.50033 1.66663C5.31699 1.66663 3.54199 3.44163 3.54199 5.62496C3.54199 7.76663 5.21699 9.49996 7.40033 9.57496C7.46699 9.56663 7.53366 9.56663 7.58366 9.57496C7.60033 9.57496 7.60866 9.57496 7.62533 9.57496C7.63366 9.57496 7.63366 9.57496 7.64199 9.57496C9.77533 9.49996 11.4503 7.76663 11.4587 5.62496C11.4587 3.44163 9.68366 1.66663 7.50033 1.66663Z" fill="#B9BBBE"/>
<path d="M11.7328 11.7908C9.40781 10.2408 5.61615 10.2408 3.27448 11.7908C2.21615 12.4991 1.63281 13.4575 1.63281 14.4825C1.63281 15.5075 2.21615 16.4575 3.26615 17.1575C4.43281 17.9408 5.96615 18.3325 7.49948 18.3325C9.03281 18.3325 10.5661 17.9408 11.7328 17.1575C12.7828 16.4491 13.3661 15.4991 13.3661 14.4658C13.3578 13.4408 12.7828 12.4908 11.7328 11.7908Z" fill="#B9BBBE"/>
<path d="M16.6588 6.11512C16.7921 7.73179 15.6421 9.14846 14.0505 9.34012C14.0421 9.34012 14.0421 9.34012 14.0338 9.34012H14.0088C13.9588 9.34012 13.9088 9.34012 13.8671 9.35679C13.0588 9.39845 12.3171 9.14012 11.7588 8.66512C12.6171 7.89845 13.1088 6.74846 13.0088 5.49846C12.9505 4.82346 12.7171 4.20679 12.3671 3.68179C12.6838 3.52346 13.0505 3.42346 13.4255 3.39012C15.0588 3.24846 16.5171 4.46512 16.6588 6.11512Z" fill="#B9BBBE"/>
<path d="M18.3249 13.8253C18.2582 14.6336 17.7415 15.3336 16.8749 15.8086C16.0415 16.267 14.9915 16.4836 13.9499 16.4586C14.5499 15.917 14.8999 15.242 14.9665 14.5253C15.0499 13.492 14.5582 12.5003 13.5749 11.7086C13.0165 11.267 12.3665 10.917 11.6582 10.6586C13.4999 10.1253 15.8165 10.4836 17.2415 11.6336C18.0082 12.2503 18.3999 13.0253 18.3249 13.8253Z" fill="#B9BBBE"/>
</svg>
