<?xml version="1.0" encoding="utf-8"?>
<!-- Generator: Adobe Illustrator 26.2.1, SVG Export Plug-In . SVG Version: 6.00 Build 0)  -->
<svg version="1.1" id="图层_1" xmlns="http://www.w3.org/2000/svg" xmlns:xlink="http://www.w3.org/1999/xlink" x="0px" y="0px"
	 viewBox="0 0 344 441" style="enable-background:new 0 0 344 441;" xml:space="preserve">
<style type="text/css">
	.st0{fill:#282737;stroke:#555766;}
	.st1{fill:#1F1E2D;stroke:#1A1C2C;}
	.st2{fill:#282737;}
	.st3{fill:#AB56DF;fill-opacity:0.82;}
	.st4{fill:url(#SVGID_1_);}
	.st5{fill:#AA1FFF;}
	.st6{fill-rule:evenodd;clip-rule:evenodd;fill:#FFFFFF;}
	.st7{fill:#3A4048;}
	.st8{fill:#1FD424;fill-opacity:0.82;}
	.st9{fill:url(#SVGID_00000168822997320089771350000010465362426085224625_);}
	.st10{fill:#1FD524;}
	.st11{fill:#FFFFFF;}
	.st12{fill:url(#SVGID_00000122693718002280628130000013052757253526733241_);}
	.st13{fill:url(#SVGID_00000147200867318610954090000002921233374566605244_);}
	.st14{fill:url(#SVGID_00000163048320996054447030000010517783939216314027_);}
	.st15{fill:url(#SVGID_00000055673032918375404640000017650197332839642287_);}
	.st16{fill:none;}
	.st17{fill:none;stroke:#555766;}
	.st18{fill:none;stroke:#555766;stroke-width:3;}
	.st19{fill:none;stroke:url(#SVGID_00000037685574976404850510000016066605325487639209_);}
	.st20{fill:none;stroke:url(#SVGID_00000089541978396166595690000003682588117859005071_);}
	.st21{fill:#626174;}
	.st22{fill-rule:evenodd;clip-rule:evenodd;fill:#CDD0D4;}
	.st23{enable-background:new    ;}
	.st24{fill:#E3E5E8;}
	.star1,.star2,.star3{
		animation: shanshan 1s ease-in-out infinite;		
		}
		.star2{
			animation-duration:1.5s;
			animation-delay:0.6s;
		}
		.star3{
			animation-duration:1.2s;
			animation-delay:0.4s;
		}
@keyframes shanshan {
70%{opacity:0.8;}30%{opacity:0.8;}
50%{
	opacity:0;
}
}
</style>
<path class="st0" d="M328,0.5H16C7.4,0.5,0.5,7.4,0.5,16v409c0,8.6,6.9,15.5,15.5,15.5h312c8.6,0,15.5-6.9,15.5-15.5V16
	C343.5,7.4,336.6,0.5,328,0.5z M336,152c0,4.4-3.6,8-8,8H41c-18.2,0-33-14.8-33-33V15c0-4.4,3.6-8,8-8h312c4.4,0,8,3.6,8,8V152z"/>
<path class="st1" d="M15,361.5h314c3.6,0,6.5,2.9,6.5,6.5v55c0,5.2-4.3,9.5-9.5,9.5H18c-5.2,0-9.5-4.3-9.5-9.5v-55
	C8.5,364.4,11.4,361.5,15,361.5z"/>
<path class="st2" d="M40,395h92c8.3,0,15,6.7,15,15l0,0c0,8.3-6.7,15-15,15H40c-8.3,0-15-6.7-15-15l0,0C25,401.7,31.7,395,40,395z"
	/>
<path class="st2" d="M212,395h92c8.3,0,15,6.7,15,15l0,0c0,8.3-6.7,15-15,15h-92c-8.3,0-15-6.7-15-15l0,0
	C197,401.7,203.7,395,212,395z"/>
<g>
	<path class="st3" d="M62.3,420c5.5,0,10-4.5,10-10s-4.5-10-10-10s-10,4.5-10,10S56.8,420,62.3,420z"/>
</g>
<g>
	
		<linearGradient id="SVGID_1_" gradientUnits="userSpaceOnUse" x1="57.0514" y1="-285.8951" x2="65.4958" y2="-303.2281" gradientTransform="matrix(1 0 0 -1 0 116)">
		<stop  offset="0" style="stop-color:#BD9BD1"/>
		<stop  offset="1" style="stop-color:#DABDEC"/>
	</linearGradient>
	<path class="st4" d="M61,420c5.5,0,10-4.5,10-10s-4.5-10-10-10s-10,4.5-10,10S55.5,420,61,420z"/>
</g>
<g>
	<path class="st5" d="M61,418c4.4,0,8-3.6,8-8s-3.6-8-8-8s-8,3.6-8,8S56.6,418,61,418z"/>
</g>
<g>
	<path class="st6" d="M58.1,407.4v5.7c0,0.6-0.5,1.4-0.8,1.8c-0.1,0.1-0.1,0.2,0.1,0.2H58h0.3H61c1.5,0,2.7-1.2,2.7-2.7v-5.2
		c0.1-0.6,0.7-1.6,1.1-2.1c0.1-0.1,0-0.2-0.1-0.2h-0.9h-3.2C59.2,404.9,58.1,406,58.1,407.4z M62,406.6c0,0.4-0.3,0.6-0.6,0.6
		c-0.4,0-0.7-0.3-0.7-0.6s0.3-0.6,0.7-0.6C61.7,406,62,406.2,62,406.6z"/>
</g>
<rect x="172" y="373" class="st7" width="1" height="48"/>
<g>
	<path class="st8" d="M234.3,420c5.5,0,10-4.5,10-10s-4.5-10-10-10s-10,4.5-10,10S228.8,420,234.3,420z"/>
</g>
<g>
	
		<linearGradient id="SVGID_00000018216446817608385360000010868561555608918912_" gradientUnits="userSpaceOnUse" x1="226.0432" y1="-285.8472" x2="254.4872" y2="-319.1812" gradientTransform="matrix(1 0 0 -1 0 116)">
		<stop  offset="0" style="stop-color:#A9FFBF"/>
		<stop  offset="1" style="stop-color:#FCFFE0"/>
	</linearGradient>
	<path style="fill:url(#SVGID_00000018216446817608385360000010868561555608918912_);" d="M233,420c5.5,0,10-4.5,10-10
		s-4.5-10-10-10s-10,4.5-10,10S227.5,420,233,420z"/>
</g>
<g>
	<path class="st10" d="M233,418c4.4,0,8-3.6,8-8s-3.6-8-8-8s-8,3.6-8,8S228.6,418,233,418z"/>
</g>
<g>
	<path class="st11" d="M233.9,408.9v-1.4h2.9v-2.2h-8v2.2h2.9v1.4c-2.4,0.1-4.2,0.7-4.2,1.3c0,0.6,1.8,1.2,4.2,1.3v4.5h2.2v-4.5
		c2.4-0.1,4.2-0.7,4.2-1.3C238.1,409.5,236.3,409,233.9,408.9z M232.8,411c-2.6,0-4.7-0.4-4.7-1c0-0.5,1.5-0.8,3.6-0.9v1.6
		c0.4,0,0.7,0,1.1,0c0.4,0,0.8,0,1.1,0v-1.6c2.1,0.1,3.6,0.5,3.6,0.9C237.5,410.6,235.4,411,232.8,411z"/>
</g>
<linearGradient id="SVGID_00000168101709498443179560000007208443502882778288_" gradientUnits="userSpaceOnUse" x1="239.4899" y1="-60.3306" x2="107.8268" y2="-237.2136" gradientTransform="matrix(1 0 0 -1 0 116)">
	<stop  offset="0" style="stop-color:#AA1FFF"/>
	<stop  offset="1" style="stop-color:#2BA1FF"/>
</linearGradient>
<path style="fill:url(#SVGID_00000168101709498443179560000007208443502882778288_);" d="M15,241h314c3.9,0,7,3.1,7,7v38
	c0,3.9-3.1,7-7,7H15c-3.9,0-7-3.1-7-7v-38C8,244.1,11.1,241,15,241z"/>
<linearGradient id="SVGID_00000049913642474065908840000005267922351937850515_" gradientUnits="userSpaceOnUse" x1="239.4899" y1="-120.3306" x2="107.8268" y2="-297.2136" gradientTransform="matrix(1 0 0 -1 0 116)">
	<stop  offset="0" style="stop-color:#AA1FFF"/>
	<stop  offset="1" style="stop-color:#2BA1FF"/>
</linearGradient>
<path style="fill:url(#SVGID_00000049913642474065908840000005267922351937850515_);" d="M15,301h314c3.9,0,7,3.1,7,7v38
	c0,3.9-3.1,7-7,7H15c-3.9,0-7-3.1-7-7v-38C8,304.1,11.1,301,15,301z"/>
<path class="st1" d="M329,292.5H15c-3.6,0-6.5-2.9-6.5-6.5v-38c0-3.6,2.9-6.5,6.5-6.5h173.2c5.8,0,11.4,2.3,15.4,6.5l5,5.2
	c4.2,4.4,10.1,6.8,16.1,6.8H331c2.5,0,4.5,2,4.5,4.5V286C335.5,289.6,332.6,292.5,329,292.5z"/>
<path class="st1" d="M329,352.5H15c-3.6,0-6.5-2.9-6.5-6.5v-38c0-3.6,2.9-6.5,6.5-6.5h207.2c5.8,0,11.4,2.3,15.4,6.5l5,5.2
	c4.2,4.4,10.1,6.8,16.1,6.8H331c2.5,0,4.5,2,4.5,4.5V346C335.5,349.6,332.6,352.5,329,352.5z"/>
<g>
	<path class="st16" d="M336,152V15c0-4.4-3.6-8-8-8H16c-4.4,0-8,3.6-8,8v112c0,18.2,14.8,33,33,33h287C332.4,160,336,156.4,336,152z
		"/>
	<path class="st17" d="M336.5,152V15c0-4.7-3.8-8.5-8.5-8.5H16c-4.7,0-8.5,3.8-8.5,8.5v112c0,18.5,15,33.5,33.5,33.5h287
		C332.7,160.5,336.5,156.7,336.5,152z"/>
</g>
<g>
	<path class="st2" d="M84,129c0,21-17,38-38,38S8,150,8,129s17-38,38-38S84,108,84,129z"/>
</g>
<path class="st18" d="M46,168.5c21.8,0,39.5-17.7,39.5-39.5S67.8,89.5,46,89.5S6.5,107.2,6.5,129S24.2,168.5,46,168.5z"/>
<g>
	<path class="st11 star3" d="M225.1,54.3l0.4,3.3c0.4,2.7,2.1,5.1,4.6,6.3l0,0l0,0c-2.5,1.2-4.2,3.6-4.6,6.3l-0.4,3.3l-0.4-3.3
		c-0.4-2.7-2.1-5.1-4.6-6.3l0,0l0,0c2.5-1.2,4.2-3.6,4.6-6.3L225.1,54.3z"/>
</g>
<g>
	<path class="st11 star1" d="M121.8,42.8l0.9,5.2c1,5.4,4.8,9.8,10,11.5l1.8,0.6l-1.8,0.6c-5.2,1.7-9,6.2-10,11.5l-0.9,5.2l-0.9-5.2
		c-1-5.4-4.8-9.8-10-11.5l-1.8-0.6l1.8-0.6c5.2-1.7,9-6.2,10-11.5L121.8,42.8z"/>
</g>
<g>
	<path class="st11 star2" d="M213.5,104.4l1.1,7c0.5,3.5,2.9,6.5,6.1,7.8l2.4,1l-2.4,1c-3.3,1.3-5.6,4.3-6.1,7.8l-1.1,7l-1.1-7
		c-0.5-3.5-2.9-6.5-6.1-7.8l-2.4-1l2.4-1c3.3-1.3,5.6-4.3,6.1-7.8L213.5,104.4z"/>
</g>
<rect x="139.9" y="32" class="st16" width="73.2" height="98.6"/>
<linearGradient id="SVGID_00000034083424453024615790000016380384784164589497_" gradientUnits="userSpaceOnUse" x1="168.8825" y1="33.4898" x2="175.6065" y2="9.7308" gradientTransform="matrix(1 0 0 -1 0 116)">
	<stop  offset="0" style="stop-color:#FFFFFF"/>
	<stop  offset="1" style="stop-color:#FFFFFF;stop-opacity:0"/>
</linearGradient>
<path style="fill:none;stroke:url(#SVGID_00000034083424453024615790000016380384784164589497_);" d="M237.2,75.3
	c0.6,2.4-0.4,5.2-3.1,8.4c-2.7,3.1-6.9,6.4-12.3,9.8c-10.9,6.6-26.7,13.2-44.9,18.1c-18.1,4.9-35.1,7.2-47.9,7
	c-6.4-0.1-11.7-0.9-15.6-2.2c-3.9-1.4-6.2-3.3-6.9-5.7c-0.6-2.4,0.4-5.2,3.1-8.4c2.7-3.1,6.9-6.4,12.3-9.8
	c10.9-6.6,26.7-13.2,44.9-18.1c18.1-4.9,35.1-7.2,47.9-7c6.4,0.1,11.7,0.9,15.6,2.2C234.2,71,236.6,72.9,237.2,75.3z"/>
<linearGradient id="SVGID_00000055705780369016288690000012961076883097767096_" gradientUnits="userSpaceOnUse" x1="168.3226" y1="12.518" x2="174.5986" y2="41.2077" gradientTransform="matrix(1 0 0 -1 0 116)">
	<stop  offset="0" style="stop-color:#FFFFFF"/>
	<stop  offset="1" style="stop-color:#FFFFFF;stop-opacity:0"/>
</linearGradient>
<path style="fill:none;stroke:url(#SVGID_00000055705780369016288690000012961076883097767096_);" d="M238.4,99.6
	c-0.5,2.4-2.6,4.5-6.4,6.2c-3.8,1.6-9,2.8-15.4,3.4c-12.7,1.2-29.8,0.1-48.3-3.4c-18.4-3.5-34.7-8.9-46.1-14.7
	c-5.7-2.9-10.1-5.9-13-8.8s-4.1-5.7-3.7-8.1c0.5-2.4,2.6-4.5,6.4-6.2c3.8-1.6,9-2.8,15.4-3.4c12.7-1.2,29.8-0.1,48.3,3.4
	c18.4,3.5,34.7,8.9,46.1,14.7c5.7,2.9,10.1,5.9,13,8.8C237.7,94.4,238.9,97.1,238.4,99.6z"/>
<g>
	<path class="st21" d="M294.1,184.3v1.1c0,0.1-0.1,0.2-0.2,0.2h-6.5c-0.5,0-0.9,0.4-0.9,0.9c0,0.1-0.1,0.1-0.2,0.1h-1
		c-0.1,0-0.2-0.1-0.2-0.2c0.1-1.3,1-2.3,2.2-2.3h6.5C294,184.1,294.1,184.2,294.1,184.3z M292.8,190.7c0-0.6-0.5-0.9-0.9-0.9h-4.4
		c-1.1,0-2-0.9-2.2-2.1c0-0.1,0.1-0.2,0.2-0.2h1c0.1,0,0.1,0.1,0.2,0.1c0.1,0.4,0.5,0.8,0.9,0.8h4.4c1.2,0,2.2,0.9,2.2,2.3v0.6
		c0,0.9-0.3,1.7-1,2.2c-0.3,0.3-0.7,0.4-1.3,0.4h-6.6c-0.1,0-0.2-0.1-0.2-0.2v-1.1c0-0.1,0.1-0.2,0.2-0.2h6.5c0.5,0,0.9-0.4,0.9-1
		L292.8,190.7L292.8,190.7z"/>
	<path class="st21" d="M305.2,185.6h-8.7c-0.1,0-0.2-0.1-0.2-0.2v-1.1c0-0.1,0.1-0.2,0.2-0.2h8.7c0.1,0,0.2,0.1,0.2,0.2v1.1
		C305.4,185.5,305.3,185.6,305.2,185.6z"/>
	<path class="st21" d="M305.2,194h-8.7c-0.1,0-0.2-0.1-0.2-0.2v-1.1c0-0.1,0.1-0.2,0.2-0.2h8.7c0.1,0,0.2,0.1,0.2,0.2v1.1
		C305.4,193.9,305.3,194,305.2,194z"/>
	<path class="st21" d="M305.2,189.8h-8.7c-0.1,0-0.2-0.1-0.2-0.2v-1.1c0-0.1,0.1-0.2,0.2-0.2h8.7c0.1,0,0.2,0.1,0.2,0.2v1.1
		C305.4,189.7,305.3,189.8,305.2,189.8z"/>
	<path class="st21" d="M316.6,185.6h-8.7c-0.1,0-0.2-0.1-0.2-0.2v-1.1c0-0.1,0.1-0.2,0.2-0.2h8.7c0.1,0,0.2,0.1,0.2,0.2v1.1
		C316.7,185.5,316.7,185.6,316.6,185.6z"/>
	<path class="st21" d="M316.6,194h-8.7c-0.1,0-0.2-0.1-0.2-0.2v-1.1c0-0.1,0.1-0.2,0.2-0.2h8.7c0.1,0,0.2,0.1,0.2,0.2v1.1
		C316.7,193.9,316.7,194,316.6,194z"/>
	<path class="st21" d="M316.6,189.8h-8.7c-0.1,0-0.2-0.1-0.2-0.2v-1.1c0-0.1,0.1-0.2,0.2-0.2h8.7c0.1,0,0.2,0.1,0.2,0.2v1.1
		C316.7,189.7,316.7,189.8,316.6,189.8z"/>
	<path class="st21" d="M316.6,185.6h-8.7c-0.1,0-0.2-0.1-0.2-0.2v-1.1c0-0.1,0.1-0.2,0.2-0.2h8.7c0.1,0,0.2,0.1,0.2,0.2v1.1
		C316.7,185.5,316.7,185.6,316.6,185.6z"/>
	<path class="st21" d="M319.1,188.5c0-0.1,0.1-0.2,0.2-0.2h6.5c0.7,0,0.9-0.6,0.9-1.5c0-0.5-0.1-1.3-0.9-1.3h-6.5
		c-0.1,0-0.2-0.1-0.2-0.2v-1.1c0-0.1,0.1-0.2,0.2-0.2h6.5c1.3,0,2.2,1.1,2.2,2.4v0.8c0,1.4-1,2.4-2.2,2.4h-0.6
		c-0.1,0-0.2,0.2-0.1,0.2l2.8,3.6c0.1,0.1,0,0.3-0.1,0.3h-1.3c-0.1,0-0.1,0-0.1-0.1l-3.1-4c-0.1-0.1-0.1-0.1-0.1-0.1h-2.4
		c-0.1,0-0.2,0.1-0.2,0.2v3.8c0,0.1-0.1,0.2-0.2,0.2h-1c-0.1,0-0.2-0.1-0.2-0.2L319.1,188.5L319.1,188.5z"/>
	<path class="st21" d="M270.1,199.1c5,0,9.1-4.5,9.1-10s-4.1-10-9.1-10s-9.1,4.5-9.1,10S265.1,199.1,270.1,199.1z"/>
	<path class="st22" d="M266.8,185.8v7.1c0,0.8-0.6,1.8-1,2.3c-0.1,0.1-0.1,0.3,0.1,0.3h0.8h0.3h3c1.7,0,3.1-1.5,3.1-3.4v-6.6
		c0.1-0.8,0.8-2,1.2-2.6c0.1-0.1,0-0.3-0.1-0.3h-1h-3.6C268.1,182.6,266.8,184,266.8,185.8z M271.2,184.8c0,0.4-0.3,0.8-0.7,0.8
		c-0.4,0-0.7-0.4-0.7-0.8c0-0.5,0.3-0.8,0.7-0.8C270.9,184,271.2,184.3,271.2,184.8z"/>
</g>
<g class="st23">
	<path class="st21" d="M14.7,223.1l2.1-10h2.7c0.8,0,1.2,0,1.4,0c0.4,0,0.8,0.1,1.1,0.3s0.6,0.3,0.9,0.5s0.5,0.5,0.7,0.8
		s0.3,0.7,0.4,1.1c0.1,0.4,0.2,0.9,0.2,1.4c0,1.1-0.2,2-0.6,2.9c-0.4,0.8-0.9,1.5-1.6,2c-0.5,0.4-1.1,0.7-1.9,0.8
		c-0.4,0.1-1.1,0.2-2,0.2H14.7z M17.1,221.5h1c0.8,0,1.3,0,1.6-0.1c0.3-0.1,0.7-0.3,0.9-0.5c0.4-0.4,0.7-0.9,1-1.5s0.4-1.3,0.4-2.2
		c0-0.7-0.1-1.2-0.3-1.6c-0.2-0.4-0.5-0.6-0.9-0.7c-0.2-0.1-0.7-0.1-1.3-0.1h-1.2L17.1,221.5z"/>
	<path class="st21" d="M25.1,219.8l2-0.1c0,0.6,0.1,1,0.3,1.3c0.3,0.4,0.9,0.5,1.7,0.5c0.7,0,1.2-0.1,1.5-0.4s0.5-0.5,0.5-0.9
		c0-0.3-0.1-0.5-0.4-0.8c-0.2-0.2-0.6-0.4-1.4-0.7s-1.3-0.6-1.7-0.8c-0.4-0.2-0.6-0.5-0.8-0.9s-0.3-0.8-0.3-1.3
		c0-0.8,0.3-1.5,0.9-2.1s1.5-0.8,2.7-0.8s2.1,0.3,2.7,0.8s1,1.3,1.1,2.2l-2,0.1c-0.1-0.5-0.2-0.8-0.5-1.1s-0.7-0.4-1.3-0.4
		c-0.6,0-1,0.1-1.2,0.3s-0.4,0.5-0.4,0.8s0.1,0.5,0.3,0.7c0.2,0.2,0.7,0.5,1.5,0.8c1.2,0.5,1.9,0.9,2.2,1.2c0.5,0.5,0.7,1,0.7,1.8
		c0,0.9-0.3,1.6-1,2.3c-0.7,0.6-1.7,0.9-2.9,0.9c-0.9,0-1.6-0.1-2.2-0.4c-0.6-0.3-1.1-0.7-1.3-1.2S25.1,220.5,25.1,219.8z"/>
	<path class="st21" d="M42.1,223.1h-1.9l-2.7-6.7l-1.4,6.7h-1.9l2.1-10h1.9l2.7,6.7l1.4-6.7h1.9L42.1,223.1z"/>
</g>
<g class="st23">
	<path class="st24" d="M25.9,251.3h1.9v5c0,0.8,0,1.3,0.1,1.6c0.1,0.4,0.3,0.7,0.6,0.9c0.3,0.2,0.7,0.3,1.2,0.3s0.9-0.1,1.2-0.3
		s0.4-0.5,0.5-0.8s0.1-0.8,0.1-1.6v-5.1h1.9v4.9c0,1.1-0.1,1.9-0.2,2.4c-0.1,0.5-0.3,0.9-0.6,1.2c-0.3,0.3-0.6,0.6-1.1,0.8
		s-1.1,0.3-1.8,0.3c-0.9,0-1.6-0.1-2-0.3c-0.5-0.2-0.8-0.5-1.1-0.8s-0.4-0.7-0.5-1c-0.1-0.5-0.2-1.3-0.2-2.4
		C25.9,256.4,25.9,251.3,25.9,251.3z"/>
	<path class="st24" d="M34.9,257.6l1.8-0.2c0.1,0.6,0.3,1.1,0.7,1.4c0.3,0.3,0.8,0.4,1.4,0.4c0.6,0,1.1-0.1,1.4-0.4
		c0.3-0.3,0.5-0.6,0.5-0.9c0-0.2-0.1-0.4-0.2-0.6c-0.1-0.2-0.4-0.3-0.7-0.4c-0.2-0.1-0.7-0.2-1.5-0.4c-1-0.2-1.7-0.6-2.1-0.9
		c-0.6-0.5-0.9-1.1-0.9-1.9c0-0.5,0.1-0.9,0.4-1.3c0.3-0.4,0.7-0.7,1.2-0.9s1.1-0.3,1.8-0.3c1.2,0,2,0.3,2.6,0.8s0.9,1.2,0.9,2
		l-1.9,0.1c-0.1-0.5-0.3-0.8-0.5-1c-0.3-0.2-0.7-0.3-1.2-0.3s-1,0.1-1.3,0.3c-0.2,0.1-0.3,0.3-0.3,0.6c0,0.2,0.1,0.4,0.3,0.6
		c0.2,0.2,0.8,0.4,1.7,0.6c0.9,0.2,1.6,0.4,2,0.7c0.4,0.2,0.8,0.5,1,0.9s0.4,0.9,0.4,1.5c0,0.5-0.1,1-0.4,1.5
		c-0.3,0.5-0.7,0.8-1.3,1s-1.2,0.3-2,0.3c-1.2,0-2.1-0.3-2.7-0.8S35,258.6,34.9,257.6z"/>
	<path class="st24" d="M44,260.6v-9.3h6.9v1.6h-5v2.1h4.7v1.6h-4.7v2.5h5.2v1.6H44V260.6z"/>
	<path class="st24" d="M52.7,260.6v-9.3h4c1,0,1.7,0.1,2.2,0.3s0.8,0.5,1.1,0.9s0.4,0.9,0.4,1.5c0,0.7-0.2,1.3-0.6,1.7
		c-0.4,0.4-1,0.7-1.8,0.9c0.4,0.2,0.7,0.5,1,0.8s0.6,0.8,1.1,1.5l1.1,1.8H59l-1.4-2c-0.5-0.7-0.8-1.2-1-1.4s-0.4-0.3-0.6-0.4
		c-0.2-0.1-0.5-0.1-0.9-0.1h-0.4v3.9L52.7,260.6L52.7,260.6z M54.6,255.2H56c0.9,0,1.5,0,1.7-0.1s0.4-0.2,0.5-0.4s0.2-0.4,0.2-0.7
		s-0.1-0.6-0.3-0.8s-0.4-0.3-0.7-0.4c-0.2,0-0.6,0-1.4,0h-1.5L54.6,255.2L54.6,255.2z"/>
</g>
<g class="st23">
	<path class="st24" d="M25.9,320.3V311h2.8l1.7,6.3l1.7-6.3h2.8v9.3h-1.7V313l-1.8,7.3h-1.8l-1.8-7.3v7.3H25.9z"/>
	<path class="st24" d="M36.8,320.3V311h6.9v1.6h-5v2.1h4.7v1.6h-4.7v2.5h5.2v1.6h-7.1V320.3z"/>
	<path class="st24" d="M45.4,320.3V311h2.8l1.7,6.3l1.7-6.3h2.8v9.3h-1.7V313l-1.8,7.3H49l-1.8-7.3v7.3H45.4z"/>
	<path class="st24" d="M55.9,315.7c0-0.9,0.1-1.7,0.4-2.4c0.2-0.5,0.5-0.9,0.9-1.3s0.8-0.7,1.2-0.8c0.6-0.2,1.2-0.4,2-0.4
		c1.4,0,2.5,0.4,3.3,1.3c0.8,0.9,1.2,2,1.2,3.5s-0.4,2.7-1.2,3.5s-1.9,1.3-3.3,1.3c-1.4,0-2.5-0.4-3.3-1.3
		C56.3,318.4,55.9,317.2,55.9,315.7z M57.8,315.7c0,1.1,0.2,1.9,0.7,2.4s1.1,0.8,1.9,0.8s1.4-0.3,1.8-0.8c0.5-0.5,0.7-1.3,0.7-2.4
		s-0.2-1.9-0.7-2.4s-1.1-0.8-1.9-0.8s-1.4,0.3-1.9,0.8S57.8,314.6,57.8,315.7z"/>
	<path class="st24" d="M66.4,320.3V311h4c1,0,1.7,0.1,2.2,0.3c0.5,0.2,0.8,0.5,1.1,0.9s0.4,0.9,0.4,1.5c0,0.7-0.2,1.3-0.6,1.7
		s-1,0.7-1.8,0.9c0.4,0.2,0.7,0.5,1,0.8s0.6,0.8,1.1,1.5l1.1,1.8h-2.2l-1.4-2c-0.5-0.7-0.8-1.2-1-1.4s-0.4-0.3-0.6-0.4
		s-0.5-0.1-0.9-0.1h-0.4v3.9L66.4,320.3L66.4,320.3z M68.3,315h1.4c0.9,0,1.5,0,1.7-0.1s0.4-0.2,0.5-0.4s0.2-0.4,0.2-0.7
		c0-0.3-0.1-0.6-0.3-0.8c-0.2-0.2-0.4-0.3-0.7-0.4c-0.2,0-0.6,0-1.4,0h-1.5v2.4H68.3z"/>
	<path class="st24" d="M77.7,320.3v-3.9l-3.4-5.4h2.2l2.2,3.7l2.1-3.7H83l-3.4,5.4v3.9H77.7z"/>
	<path class="st24" d="M91,320.3v-9.2h1.9v7.7h4.7v1.6H91V320.3z"/>
	<path class="st24" d="M98.5,315.7c0-0.9,0.1-1.7,0.4-2.4c0.2-0.5,0.5-0.9,0.9-1.3s0.8-0.7,1.2-0.8c0.6-0.2,1.2-0.4,2-0.4
		c1.4,0,2.5,0.4,3.3,1.3s1.2,2,1.2,3.5s-0.4,2.7-1.2,3.5s-1.9,1.3-3.3,1.3s-2.5-0.4-3.3-1.3C98.9,318.4,98.5,317.2,98.5,315.7z
		 M100.4,315.7c0,1.1,0.2,1.9,0.7,2.4s1.1,0.8,1.9,0.8s1.4-0.3,1.8-0.8c0.5-0.5,0.7-1.3,0.7-2.4s-0.2-1.9-0.7-2.4s-1.1-0.8-1.9-0.8
		s-1.4,0.3-1.9,0.8S100.4,314.6,100.4,315.7z"/>
	<path class="st24" d="M117.4,320.3h-2l-0.8-2.1h-3.7l-0.8,2.1h-2l3.6-9.3h2L117.4,320.3z M113.9,316.7l-1.3-3.5l-1.3,3.5H113.9z"/>
	<path class="st24" d="M118.4,311h3.4c0.8,0,1.4,0.1,1.8,0.2c0.5,0.2,1,0.4,1.4,0.9c0.4,0.4,0.7,0.9,0.9,1.5s0.3,1.3,0.3,2.2
		c0,0.8-0.1,1.4-0.3,2c-0.2,0.7-0.6,1.2-1,1.6c-0.3,0.3-0.8,0.6-1.3,0.7c-0.4,0.1-1,0.2-1.7,0.2h-3.5
		C118.4,320.3,118.4,311,118.4,311z M120.3,312.6v6.2h1.4c0.5,0,0.9,0,1.1-0.1c0.3-0.1,0.6-0.2,0.8-0.4c0.2-0.2,0.4-0.5,0.5-0.9
		s0.2-1,0.2-1.7s-0.1-1.3-0.2-1.7c-0.1-0.4-0.3-0.7-0.5-0.9c-0.2-0.2-0.5-0.4-0.9-0.4c-0.3-0.1-0.8-0.1-1.5-0.1H120.3z"/>
</g>
<g class="st23">
	<path class="st24" d="M48.2,381.9v1.7H42c0.1-0.6,0.3-1.2,0.6-1.8s1-1.3,2-2.2c0.8-0.7,1.3-1.3,1.5-1.5c0.2-0.4,0.4-0.7,0.4-1.1
		s-0.1-0.7-0.3-0.9c-0.2-0.2-0.5-0.3-0.9-0.3s-0.7,0.1-0.9,0.3s-0.3,0.6-0.4,1.1l-1.8-0.2c0.1-1,0.4-1.7,1-2.1s1.3-0.6,2.1-0.6
		c0.9,0,1.6,0.2,2.2,0.7c0.5,0.5,0.8,1.1,0.8,1.8c0,0.4-0.1,0.8-0.2,1.2c-0.1,0.4-0.4,0.8-0.7,1.2c-0.2,0.3-0.6,0.7-1.2,1.2
		c-0.6,0.5-0.9,0.9-1.1,1c-0.2,0.2-0.3,0.3-0.4,0.5L48.2,381.9L48.2,381.9z"/>
	<path class="st24" d="M52.9,383.6v-1.9h-3.8v-1.6l4-5.9h1.5v5.9h1.2v1.6h-1.2v1.9H52.9z M52.9,380.1v-3.2l-2.1,3.2H52.9z"/>
	<path class="st24" d="M57.1,383.6v-9.3H59v3.7h3.7v-3.7h1.9v9.3h-1.9v-4.1H59v4.1H57.1z"/>
	<path class="st24" d="M78,383.6h-2l-0.8-2.1h-3.7l-0.8,2.1h-2l3.6-9.3h2L78,383.6z M74.5,379.9l-1.3-3.5l-1.3,3.5H74.5z"/>
	<path class="st24" d="M78.6,379c0-0.9,0.1-1.7,0.4-2.4c0.2-0.5,0.5-0.9,0.9-1.3s0.8-0.7,1.2-0.8c0.6-0.2,1.2-0.4,2-0.4
		c1.4,0,2.5,0.4,3.3,1.3s1.2,2,1.2,3.5s-0.4,2.7-1.2,3.5s-1.9,1.3-3.3,1.3s-2.5-0.4-3.3-1.3C79,381.6,78.6,380.4,78.6,379z
		 M80.5,378.9c0,1.1,0.2,1.9,0.7,2.4s1.1,0.8,1.9,0.8s1.4-0.3,1.8-0.8c0.5-0.5,0.7-1.3,0.7-2.4s-0.2-1.9-0.7-2.4s-1.1-0.8-1.9-0.8
		s-1.4,0.3-1.9,0.8S80.5,377.8,80.5,378.9z"/>
	<path class="st24" d="M89.1,383.6v-9.3H96v1.6h-5v2.1h4.7v1.6H91v2.5h5.2v1.6h-7.1V383.6z"/>
	<path class="st24" d="M100.9,380.5l1.8-0.2c0.1,0.6,0.3,1.1,0.7,1.4c0.3,0.3,0.8,0.4,1.4,0.4s1.1-0.1,1.4-0.4s0.5-0.6,0.5-0.9
		c0-0.2-0.1-0.4-0.2-0.6s-0.4-0.3-0.7-0.4c-0.2-0.1-0.7-0.2-1.5-0.4c-1-0.2-1.7-0.6-2.1-0.9c-0.6-0.5-0.9-1.1-0.9-1.9
		c0-0.5,0.1-0.9,0.4-1.3s0.7-0.7,1.2-0.9c0.5-0.2,1.1-0.3,1.8-0.3c1.2,0,2,0.3,2.6,0.8s0.9,1.2,0.9,2l-1.9,0.1
		c-0.1-0.5-0.3-0.8-0.5-1c-0.3-0.2-0.7-0.3-1.2-0.3s-1,0.1-1.3,0.3c-0.2,0.1-0.3,0.3-0.3,0.6c0,0.2,0.1,0.4,0.3,0.6
		c0.2,0.2,0.8,0.4,1.7,0.6c0.9,0.2,1.6,0.4,2,0.7c0.4,0.2,0.8,0.5,1,0.9s0.4,0.9,0.4,1.5c0,0.5-0.1,1-0.4,1.5s-0.7,0.8-1.3,1
		s-1.2,0.3-2,0.3c-1.2,0-2.1-0.3-2.7-0.8S101,381.6,100.9,380.5z"/>
	<path class="st24" d="M110,383.6v-9.3h6.9v1.6h-5v2.1h4.7v1.6h-4.7v2.5h5.2v1.6H110V383.6z"/>
	<path class="st24" d="M118.7,383.6v-9.3h6.9v1.6h-5v2.1h4.7v1.6h-4.7v2.5h5.2v1.6h-7.1V383.6z"/>
	<path class="st24" d="M127.4,383.6v-9.3h4c1,0,1.7,0.1,2.2,0.3c0.5,0.2,0.8,0.5,1.1,0.9s0.4,0.9,0.4,1.5c0,0.7-0.2,1.3-0.6,1.7
		s-1,0.7-1.8,0.9c0.4,0.2,0.7,0.5,1,0.8s0.6,0.8,1.1,1.5l1.1,1.8h-2.2l-1.4-2c-0.5-0.7-0.8-1.2-1-1.4s-0.4-0.3-0.6-0.4
		c-0.2-0.1-0.5-0.1-0.9-0.1h-0.4v3.9L127.4,383.6L127.4,383.6z M129.3,378.2h1.4c0.9,0,1.5,0,1.7-0.1s0.4-0.2,0.5-0.4
		s0.2-0.4,0.2-0.7c0-0.3-0.1-0.6-0.3-0.8c-0.2-0.2-0.4-0.3-0.7-0.4c-0.2,0-0.6,0-1.4,0h-1.5v2.4H129.3z"/>
</g>
<g class="st23">
	<path class="st24" d="M220.5,381.9v1.7h-6.3c0.1-0.6,0.3-1.2,0.6-1.8c0.3-0.6,1-1.3,2-2.2c0.8-0.7,1.3-1.3,1.5-1.5
		c0.2-0.4,0.4-0.7,0.4-1.1s-0.1-0.7-0.3-0.9s-0.5-0.3-0.9-0.3s-0.7,0.1-0.9,0.3c-0.2,0.2-0.3,0.6-0.4,1.1l-1.8-0.2
		c0.1-1,0.4-1.7,1-2.1s1.3-0.6,2.1-0.6c0.9,0,1.6,0.2,2.2,0.7c0.5,0.5,0.8,1.1,0.8,1.8c0,0.4-0.1,0.8-0.2,1.2
		c-0.1,0.4-0.4,0.8-0.7,1.2c-0.2,0.3-0.6,0.7-1.2,1.2c-0.6,0.5-0.9,0.9-1.1,1c-0.2,0.2-0.3,0.3-0.4,0.5L220.5,381.9L220.5,381.9z"/>
	<path class="st24" d="M225.2,383.6v-1.9h-3.8v-1.6l4-5.9h1.5v5.9h1.2v1.6h-1.2v1.9H225.2z M225.2,380.1v-3.2l-2.1,3.2H225.2z"/>
	<path class="st24" d="M229.3,383.6v-9.3h1.9v3.7h3.7v-3.7h1.9v9.3h-1.9v-4.1h-3.7v4.1H229.3z"/>
	<path class="st24" d="M250.2,383.6h-2l-0.8-2.1h-3.7l-0.8,2.1h-2l3.6-9.3h2L250.2,383.6z M246.8,379.9l-1.3-3.5l-1.3,3.5H246.8z"/>
	<path class="st24" d="M251.2,374.3h3.4c0.8,0,1.4,0.1,1.8,0.2c0.5,0.2,1,0.4,1.4,0.9c0.4,0.4,0.7,0.9,0.9,1.5s0.3,1.3,0.3,2.2
		c0,0.8-0.1,1.4-0.3,2c-0.2,0.7-0.6,1.2-1,1.6c-0.3,0.3-0.8,0.6-1.3,0.7c-0.4,0.1-1,0.2-1.7,0.2h-3.5V374.3z M253.1,375.8v6.2h1.4
		c0.5,0,0.9,0,1.1-0.1c0.3-0.1,0.6-0.2,0.8-0.4c0.2-0.2,0.4-0.5,0.5-0.9s0.2-1,0.2-1.7s-0.1-1.3-0.2-1.7c-0.1-0.4-0.3-0.7-0.5-0.9
		c-0.2-0.2-0.5-0.4-0.9-0.4c-0.3-0.1-0.8-0.1-1.5-0.1H253.1z"/>
	<path class="st24" d="M260.1,380.5l1.8-0.2c0.1,0.6,0.3,1.1,0.7,1.4c0.3,0.3,0.8,0.4,1.4,0.4s1.1-0.1,1.4-0.4s0.5-0.6,0.5-0.9
		c0-0.2-0.1-0.4-0.2-0.6s-0.4-0.3-0.7-0.4c-0.2-0.1-0.7-0.2-1.5-0.4c-1-0.2-1.7-0.6-2.1-0.9c-0.6-0.5-0.9-1.1-0.9-1.9
		c0-0.5,0.1-0.9,0.4-1.3s0.7-0.7,1.2-0.9s1.1-0.3,1.8-0.3c1.2,0,2,0.3,2.6,0.8s0.9,1.2,0.9,2l-1.9,0.1c-0.1-0.5-0.3-0.8-0.5-1
		c-0.3-0.2-0.7-0.3-1.2-0.3s-1,0.1-1.3,0.3c-0.2,0.1-0.3,0.3-0.3,0.6c0,0.2,0.1,0.4,0.3,0.6c0.2,0.2,0.8,0.4,1.7,0.6
		c0.9,0.2,1.6,0.4,2,0.7c0.4,0.2,0.8,0.5,1,0.9s0.4,0.9,0.4,1.5c0,0.5-0.1,1-0.4,1.5s-0.7,0.8-1.3,1c-0.5,0.2-1.2,0.3-2,0.3
		c-1.2,0-2.1-0.3-2.7-0.8C260.6,382.4,260.3,381.6,260.1,380.5z"/>
	<path class="st24" d="M272.4,380.5l1.8-0.2c0.1,0.6,0.3,1.1,0.7,1.4c0.3,0.3,0.8,0.4,1.4,0.4s1.1-0.1,1.4-0.4s0.5-0.6,0.5-0.9
		c0-0.2-0.1-0.4-0.2-0.6s-0.4-0.3-0.7-0.4c-0.2-0.1-0.7-0.2-1.5-0.4c-1-0.2-1.7-0.6-2.1-0.9c-0.6-0.5-0.9-1.1-0.9-1.9
		c0-0.5,0.1-0.9,0.4-1.3s0.7-0.7,1.2-0.9c0.5-0.2,1.1-0.3,1.8-0.3c1.2,0,2,0.3,2.6,0.8s0.9,1.2,0.9,2l-1.9,0.1
		c-0.1-0.5-0.3-0.8-0.5-1c-0.3-0.2-0.7-0.3-1.2-0.3s-1,0.1-1.3,0.3c-0.2,0.1-0.3,0.3-0.3,0.6c0,0.2,0.1,0.4,0.3,0.6
		c0.2,0.2,0.8,0.4,1.7,0.6c0.9,0.2,1.6,0.4,2,0.7c0.4,0.2,0.8,0.5,1,0.9s0.4,0.9,0.4,1.5c0,0.5-0.1,1-0.4,1.5s-0.7,0.8-1.3,1
		c-0.5,0.2-1.2,0.3-2,0.3c-1.2,0-2.1-0.3-2.7-0.8C272.9,382.4,272.5,381.6,272.4,380.5z"/>
	<path class="st24" d="M281.6,383.6v-9.3h6.9v1.6h-5v2.1h4.7v1.6h-4.7v2.5h5.2v1.6h-7.1V383.6z"/>
	<path class="st24" d="M290.2,383.6v-9.3h6.9v1.6h-5v2.1h4.7v1.6h-4.7v2.5h5.2v1.6h-7.1V383.6z"/>
	<path class="st24" d="M298.9,383.6v-9.3h4c1,0,1.7,0.1,2.2,0.3c0.5,0.2,0.8,0.5,1.1,0.9c0.3,0.4,0.4,0.9,0.4,1.5
		c0,0.7-0.2,1.3-0.6,1.7c-0.4,0.5-1,0.7-1.8,0.9c0.4,0.2,0.7,0.5,1,0.8s0.6,0.8,1.1,1.5l1.1,1.8H305l-1.4-2c-0.5-0.7-0.8-1.2-1-1.4
		s-0.4-0.3-0.6-0.4s-0.5-0.1-0.9-0.1h-0.4v3.9L298.9,383.6L298.9,383.6z M300.8,378.2h1.4c0.9,0,1.5,0,1.7-0.1s0.4-0.2,0.5-0.4
		s0.2-0.4,0.2-0.7c0-0.3-0.1-0.6-0.3-0.8s-0.4-0.3-0.7-0.4c-0.2,0-0.6,0-1.4,0h-1.5L300.8,378.2L300.8,378.2z"/>
</g>
</svg>
