<svg width="24" height="24" viewBox="0 0 24 24" fill="none" xmlns="http://www.w3.org/2000/svg">
<path fill-rule="evenodd" clip-rule="evenodd" d="M4.5 4C3.67157 4 3 4.67157 3 5.5V20.5C3 21.3284 3.67157 22 4.5 22H19.5C20.3284 22 21 21.3284 21 20.5V5.5C21 4.67157 20.3284 4 19.5 4H4.5ZM5 9.5C4.72386 9.5 4.5 9.72386 4.5 10V20C4.5 20.2761 4.72386 20.5 5 20.5H19C19.2761 20.5 19.5 20.2761 19.5 20V10C19.5 9.72386 19.2761 9.5 19 9.5H5Z" fill="#17BB7F"/>
<path d="M5.5 2.5C5.5 2.22386 5.72386 2 6 2H7C7.27614 2 7.5 2.22386 7.5 2.5V4.5C7.5 4.77614 7.27614 5 7 5H6C5.72386 5 5.5 4.77614 5.5 4.5V2.5Z" fill="#17BB7F"/>
<path d="M16.5 2.5C16.5 2.22386 16.7239 2 17 2H18C18.2761 2 18.5 2.22386 18.5 2.5V4.5C18.5 4.77614 18.2761 5 18 5H17C16.7239 5 16.5 4.77614 16.5 4.5V2.5Z" fill="#17BB7F"/>
<path d="M6.5 11H11.5V16H6.5V11Z" fill="#17BB7F"/>
</svg>
