<svg width="34" height="35" viewBox="0 0 34 35" fill="none" xmlns="http://www.w3.org/2000/svg">
<path d="M30 0.224609H4C1.79086 0.224609 0 2.01547 0 4.22461V30.2246C0 32.4337 1.79086 34.2246 4 34.2246H30C32.2091 34.2246 34 32.4337 34 30.2246V4.22461C34 2.01547 32.2091 0.224609 30 0.224609Z" fill="black" fill-opacity="0.26"/>
<path fill-rule="evenodd" clip-rule="evenodd" d="M24.7609 10.6802L25.468 9.97311L24.0538 8.5589L23.3467 9.26601L16.902 15.7107L10.4573 9.26601L9.75015 8.5589L8.33594 9.97311L9.04304 10.6802L15.4878 17.1249L9.04304 23.5697L8.33594 24.2768L9.75015 25.691L10.4573 24.9839L16.902 18.5392L23.3467 24.9839L24.0538 25.691L25.468 24.2768L24.7609 23.5697L18.3162 17.1249L24.7609 10.6802Z" fill="white"/>
</svg>
