<svg viewBox="0 0 20 21" fill="none" xmlns="http://www.w3.org/2000/svg">
<path d="M1.85684 15.2737L0.463242 13.8801C0.0877734 13.5046 0.0877734 12.896 0.463242 12.5205L3.86238 9.12112L5.22199 10.4807C5.59559 10.8581 6.20426 10.8611 6.5816 10.4875C6.95895 10.1139 6.96199 9.50526 6.5884 9.12792C6.58629 9.12558 6.58395 9.12347 6.5816 9.12112L5.22199 7.76151L12.0205 0.962998C12.396 0.587529 13.0046 0.587529 13.3801 0.962998L14.7737 2.35659C14.0418 3.46448 14.3467 4.95581 15.4543 5.68776C16.258 6.21862 17.3012 6.21862 18.1049 5.68776L19.4985 7.08136C19.8739 7.45683 19.8739 8.0655 19.4985 8.44097L12.7004 15.2397L11.3408 13.8801C10.9635 13.5065 10.3548 13.5096 9.98121 13.8869C9.6102 14.2617 9.6102 14.8652 9.98121 15.24L11.3408 16.5996L7.94168 19.9987C7.56621 20.3742 6.95754 20.3742 6.58207 19.9987L5.18848 18.6051C5.81801 17.6521 5.69027 16.3877 4.88262 15.5798C4.07449 14.7719 2.81004 14.6442 1.85684 15.2737ZM7.26176 11.1607C6.88629 11.5361 6.88629 12.1448 7.26176 12.5203L7.94168 13.2002C8.31527 13.5775 8.92395 13.5806 9.30129 13.207C9.67863 12.8334 9.68168 12.2247 9.30809 11.8474L9.30129 11.8406L8.62137 11.1607C8.2459 10.7852 7.63723 10.7852 7.26176 11.1607Z" fill="url(#paint0_linear_1612_11200)"/>
<defs>
<linearGradient id="paint0_linear_1612_11200" x1="20.2324" y1="5.50632" x2="-0.876257" y2="10.0021" gradientUnits="userSpaceOnUse">
<stop stop-color="#AA1FFF"/>
<stop offset="1" stop-color="#2BA1FF"/>
</linearGradient>
</defs>
</svg>
