<svg width="131" height="24" viewBox="0 0 131 24" fill="none" xmlns="http://www.w3.org/2000/svg">
<path d="M12 24C18.6274 24 24 18.6274 24 12C24 5.37258 18.6274 0 12 0C5.37258 0 0 5.37258 0 12C0 18.6274 5.37258 24 12 24Z" fill="#1F2226"/>
<path fill-rule="evenodd" clip-rule="evenodd" d="M7.65089 8.09961V16.6496C7.65089 17.6246 6.82589 18.7496 6.37589 19.3496C6.22589 19.4996 6.30089 19.7246 6.52589 19.7246H7.57589H8.02589H12.0009C14.2509 19.7246 16.0509 17.9246 16.0509 15.6746V7.79961C16.1259 6.89961 17.1009 5.39961 17.6259 4.72461C17.7759 4.57461 17.6259 4.34961 17.4759 4.34961H16.1259H11.4009C9.30089 4.34961 7.65089 5.99961 7.65089 8.09961ZM13.5008 6.8998C13.5008 7.43828 13.0643 7.8748 12.5258 7.8748C11.9873 7.8748 11.5508 7.43828 11.5508 6.8998C11.5508 6.36133 11.9873 5.9248 12.5258 5.9248C13.0643 5.9248 13.5008 6.36133 13.5008 6.8998Z" fill="white"/>
<path fill-rule="evenodd" clip-rule="evenodd" d="M61.5742 6.29983V7.64971V7.64983C61.5742 7.79983 61.7242 7.87483 61.7992 7.87483H73.1992C73.3492 7.87483 73.4242 7.79983 73.4242 7.64983V7.64971V6.29983V6.29971C73.4242 6.29033 73.4236 6.28125 73.4225 6.27246C73.4058 6.14062 73.2695 6.07471 73.1992 6.07471H61.7992C61.6492 6.07471 61.5742 6.22471 61.5742 6.29971V6.29983ZM58.2744 7.87483H46.8744C46.7994 7.87483 46.6494 7.79983 46.6494 7.64983V6.29983C46.6494 6.22483 46.7244 6.07483 46.8744 6.07483H58.2744C58.3494 6.07483 58.4994 6.14983 58.4994 6.29983V7.64983C58.4994 7.79983 58.4244 7.87483 58.2744 7.87483ZM43.6498 6.30002V7.65002C43.6498 7.72502 43.5748 7.87502 43.4248 7.87502H34.7998C34.1998 7.87502 33.6748 8.32502 33.5998 8.92502C33.5998 9.00002 33.5248 9.07502 33.3748 9.07502H32.0248C31.8748 9.07502 31.7998 9.00002 31.7998 8.85002C31.9498 7.35002 33.1498 6.15002 34.7248 6.15002H43.3498C43.4998 6.15002 43.6498 6.22502 43.6498 6.30002ZM41.8498 14.025C41.8498 13.35 41.2498 12.975 40.6498 12.975H34.7998C33.2998 12.975 32.0998 11.85 31.8748 10.425C31.8748 10.275 31.9498 10.2 32.0998 10.2H33.4498C33.5248 10.2 33.5998 10.275 33.6748 10.35C33.8248 10.875 34.2748 11.25 34.8748 11.25H40.7248C42.2998 11.25 43.6498 12.375 43.6498 14.025V14.775C43.6498 15.825 43.1998 16.8 42.3748 17.4C41.9248 17.7 41.3998 17.925 40.7248 17.925H32.0248C31.9498 17.925 31.7998 17.85 31.7998 17.7V16.35C31.7998 16.275 31.8748 16.125 32.0248 16.125H40.6498C41.3248 16.125 41.8498 15.6 41.8498 14.925V14.025ZM46.8744 17.9248H58.2744C58.4244 17.9248 58.4994 17.7748 58.4994 17.6998V16.3498C58.4994 16.1998 58.3494 16.1248 58.2744 16.1248H46.8744C46.7244 16.1248 46.6494 16.2748 46.6494 16.3498V17.6998C46.6494 17.8498 46.7994 17.9248 46.8744 17.9248ZM58.2744 12.8998H46.8744C46.7994 12.8998 46.6494 12.8248 46.6494 12.6748V11.3248C46.6494 11.2498 46.7244 11.0998 46.8744 11.0998H58.2744C58.3494 11.0998 58.4994 11.1748 58.4994 11.3248V12.6748C58.4994 12.7498 58.4244 12.8998 58.2744 12.8998ZM73.1992 17.9246H61.7992C61.7242 17.9246 61.5742 17.8496 61.5742 17.6996V16.3496C61.5742 16.2746 61.6492 16.1246 61.7992 16.1246H73.1992C73.2742 16.1246 73.4242 16.1996 73.4242 16.3496V17.6996C73.4242 17.7746 73.3492 17.9246 73.1992 17.9246ZM61.7992 12.8997H73.1992C73.3492 12.8997 73.4242 12.7497 73.4242 12.6747V11.3247C73.4242 11.1747 73.2742 11.0997 73.1992 11.0997H61.7992C61.6492 11.0997 61.5742 11.2497 61.5742 11.3247V12.6747C61.5742 12.8247 61.7242 12.8997 61.7992 12.8997ZM76.725 11.175C76.575 11.175 76.5 11.325 76.5 11.4V17.55C76.5 17.7 76.65 17.775 76.725 17.775H78.075C78.225 17.775 78.3 17.625 78.3 17.55V12.975C78.3 12.825 78.45 12.75 78.525 12.75H81.75C81.825 12.75 81.825 12.75 81.9 12.825L86.025 17.625C86.025 17.7 86.1 17.7 86.175 17.7H87.9C88.05 17.7 88.2 17.55 88.05 17.4L84.375 13.125C84.225 13.05 84.375 12.825 84.525 12.825H85.35C86.925 12.825 88.275 11.55 88.275 9.89995V8.99995C88.275 7.42495 87 6.07495 85.35 6.07495H76.725C76.575 6.07495 76.5 6.22495 76.5 6.29995V7.64995C76.5 7.79995 76.65 7.87495 76.725 7.87495H85.35C86.475 7.87495 86.55 8.77495 86.55 9.37495C86.55 10.425 86.25 11.175 85.35 11.175H76.725Z" fill="#1F2226"/>
<path fill-rule="evenodd" clip-rule="evenodd" d="M125.748 18.1715C124.777 18.1715 123.942 18.0058 123.245 17.6743C122.548 17.3315 122.011 16.8115 121.634 16.1143C121.257 15.4058 121.045 14.52 121 13.4572C120.992 13.103 120.986 12.7602 120.984 12.4288H122.699C122.701 12.7182 122.706 13.0324 122.714 13.3715C122.76 14.5486 123.062 15.4 123.622 15.9258C124.182 16.4515 124.891 16.7143 125.748 16.7143C126.628 16.7143 127.342 16.4515 127.891 15.9258C128.451 15.4 128.754 14.5486 128.8 13.3715C128.815 13.0324 128.825 12.7182 128.83 12.4288H130.545C130.54 12.7602 130.53 13.103 130.514 13.4572C130.48 14.52 130.268 15.4058 129.88 16.1143C129.502 16.8115 128.965 17.3315 128.268 17.6743C127.571 18.0058 126.731 18.1715 125.748 18.1715ZM128.8 10.6286C128.808 10.8058 128.814 10.9773 128.819 11.1431H130.535C130.53 10.9514 130.523 10.757 130.514 10.56C130.48 9.50861 130.262 8.63433 129.862 7.93719C129.462 7.22861 128.908 6.7029 128.2 6.36004C127.502 6.00576 126.685 5.82861 125.748 5.82861C124.822 5.82861 124.005 6.00576 123.297 6.36004C122.6 6.7029 122.051 7.22861 121.651 7.93719C121.262 8.63433 121.045 9.50861 121 10.56C120.995 10.757 120.992 10.9514 120.989 11.1431H122.704C122.707 10.9773 122.71 10.8058 122.714 10.6286C122.748 9.84004 122.897 9.20004 123.16 8.70861C123.434 8.21718 123.794 7.85718 124.24 7.62861C124.685 7.40004 125.188 7.28576 125.748 7.28576C126.331 7.28576 126.845 7.40004 127.291 7.62861C127.737 7.85718 128.091 8.21718 128.354 8.70861C128.628 9.20004 128.777 9.84004 128.8 10.6286ZM96.9488 17.8972C97.0174 17.9658 97.1146 18 97.2403 18H101.217C102.372 18 103.297 17.8343 103.995 17.5029C104.703 17.16 105.217 16.6458 105.537 15.96C105.869 15.2629 106.046 14.3886 106.069 13.3372C106.08 12.8343 106.086 12.3886 106.086 12C106.086 11.6115 106.08 11.16 106.069 10.6458C106.057 9.64004 105.886 8.79433 105.555 8.10861C105.223 7.41147 104.697 6.88576 103.977 6.53147C103.257 6.17718 102.309 6.00004 101.132 6.00004H97.2403C97.1146 6.00004 97.0174 6.04004 96.9488 6.12004C96.8803 6.18861 96.846 6.28576 96.846 6.41147V9.00021V9.64307V10.2859V11.1431H98.526V10.2859V9.00021V7.45719H101.046C102.235 7.45719 103.08 7.72576 103.583 8.2629C104.086 8.78861 104.349 9.60576 104.372 10.7143C104.395 11.0458 104.406 11.3429 104.406 11.6058V12.3772C104.406 12.6286 104.395 12.9258 104.372 13.2686C104.36 14.0572 104.246 14.6915 104.029 15.1715C103.823 15.6515 103.486 16 103.017 16.2172C102.549 16.4343 101.92 16.5429 101.132 16.5429H98.526V12.4288H96.846V17.6058C96.846 17.72 96.8803 17.8172 96.9488 17.8972ZM108.276 17.8972C108.344 17.9658 108.424 18 108.516 18H109.39C109.527 18 109.63 17.9658 109.699 17.8972C109.767 17.8286 109.807 17.7658 109.819 17.7086L110.761 15.2743L111.259 13.8L113.573 7.71433L116.384 15.2743L117.327 17.7086C117.35 17.7658 117.39 17.8286 117.447 17.8972C117.516 17.9658 117.619 18 117.756 18H118.63C118.721 18 118.801 17.9658 118.87 17.8972C118.939 17.8286 118.973 17.7486 118.973 17.6572C118.973 17.6 118.961 17.5372 118.939 17.4686L114.704 6.37718C114.659 6.2629 114.59 6.17147 114.499 6.1029C114.419 6.03433 114.304 6.00004 114.156 6.00004H112.99C112.83 6.00004 112.71 6.03433 112.63 6.1029C112.55 6.17147 112.487 6.2629 112.441 6.37718L108.19 17.4686C108.179 17.5372 108.173 17.6 108.173 17.6572C108.173 17.7486 108.207 17.8286 108.276 17.8972ZM92.1317 16.4572C91.895 16.4572 91.7031 16.6491 91.7031 16.8857V17.7429C91.7031 17.9796 91.895 18.1715 92.1317 18.1715H92.9888C93.2255 18.1715 93.4174 17.9796 93.4174 17.7429V16.8857C93.4174 16.6491 93.2255 16.4572 92.9888 16.4572H92.1317Z" fill="#1F2226"/>
</svg>
