<svg width="180" height="260" viewBox="0 0 180 260" fill="none" xmlns="http://www.w3.org/2000/svg">
<g opacity="0.5">
<rect x="58.1172" y="108.933" width="63.2746" height="40.9847" fill="#9AAEC1"/>
<rect x="58.1172" y="108.933" width="63.2746" height="11.5045" fill="url(#paint0_linear_1659_13226)"/>
<path d="M80.62 127.108C86.1979 123.872 93.0817 123.872 98.6596 127.108L120.116 139.554L141.623 151.913C147.214 155.126 150.656 161.087 150.643 167.536L150.592 192.341L150.643 217.146C150.656 223.594 147.214 229.556 141.623 232.768L120.116 245.127L98.6596 257.573C93.0817 260.809 86.1979 260.809 80.62 257.573L59.1637 245.127L37.6565 232.768C32.0654 229.556 28.6235 223.594 28.6368 217.146L28.6876 192.341L28.6368 167.536C28.6235 161.087 32.0654 155.126 37.6565 151.913L59.1637 139.554L80.62 127.108Z" fill="url(#paint1_linear_1659_13226)"/>
<g filter="url(#filter0_i_1659_13226)">
<path d="M81.347 132.016C86.4752 129.042 92.8039 129.042 97.932 132.016L117.658 143.457L137.431 154.818C142.572 157.771 145.736 163.251 145.724 169.179L145.677 191.981L145.724 214.783C145.736 220.711 142.572 226.191 137.431 229.145L117.658 240.505L97.932 251.947C92.8039 254.921 86.4752 254.921 81.347 251.947L61.6208 240.505L41.8477 229.145C36.7074 226.191 33.5431 220.711 33.5552 214.783L33.602 191.981L33.5552 169.179C33.5431 163.251 36.7074 157.771 41.8477 154.818L61.6208 143.457L81.347 132.016Z" fill="url(#paint2_linear_1659_13226)"/>
</g>
<path d="M116.906 144.755L116.911 144.758L136.684 156.119C141.358 158.804 144.235 163.787 144.224 169.176L144.177 191.978L144.177 191.984L144.224 214.786C144.235 220.176 141.358 225.159 136.684 227.844L116.911 239.204L116.906 239.207L97.1794 250.649C92.5167 253.353 86.7623 253.353 82.0996 250.649L62.3733 239.207L62.368 239.204L42.595 227.844C37.9212 225.159 35.0442 220.176 35.0552 214.786L35.102 191.984L35.102 191.978L35.0552 169.176C35.0442 163.787 37.9212 158.804 42.595 156.119L62.368 144.758L62.3733 144.755L82.0996 133.313C86.7623 130.609 92.5167 130.609 97.1794 133.313L116.906 144.755Z" stroke="url(#paint3_linear_1659_13226)" stroke-width="3" style="mix-blend-mode:overlay"/>
<g filter="url(#filter1_i_1659_13226)">
<path d="M62.143 180.462C64.6969 180.462 66.9288 180.969 68.8386 181.981C70.7483 182.993 72.2209 184.42 73.2563 186.261C74.3147 188.078 74.8439 190.184 74.8439 192.577C74.8439 194.946 74.3147 197.052 73.2563 198.892C72.2209 200.733 70.7368 202.16 68.804 203.172C66.8943 204.185 64.6739 204.691 62.143 204.691H53.0659V180.462H62.143ZM61.7633 199.583C63.9952 199.583 65.7324 198.973 66.9748 197.754C68.2173 196.534 68.8386 194.808 68.8386 192.577C68.8386 190.345 68.2173 188.607 66.9748 187.365C65.7324 186.123 63.9952 185.501 61.7633 185.501H58.9677V199.583H61.7633Z" fill="#ABB7C4" fill-opacity="0.47"/>
<path d="M93.2245 200.411H84.1819L82.7324 204.691H76.5545L85.3209 180.462H92.1545L100.921 204.691H94.674L93.2245 200.411ZM91.7059 195.855L88.7032 186.985L85.735 195.855H91.7059Z" fill="#ABB7C4" fill-opacity="0.47"/>
<path d="M115.047 204.932C112.77 204.932 110.676 204.403 108.766 203.345C106.879 202.286 105.372 200.814 104.245 198.927C103.14 197.017 102.588 194.877 102.588 192.508C102.588 190.138 103.14 188.009 104.245 186.123C105.372 184.236 106.879 182.763 108.766 181.705C110.676 180.646 112.77 180.117 115.047 180.117C117.325 180.117 119.408 180.646 121.294 181.705C123.204 182.763 124.7 184.236 125.781 186.123C126.886 188.009 127.438 190.138 127.438 192.508C127.438 194.877 126.886 197.017 125.781 198.927C124.677 200.814 123.181 202.286 121.294 203.345C119.408 204.403 117.325 204.932 115.047 204.932ZM115.047 199.548C116.98 199.548 118.522 198.904 119.672 197.616C120.846 196.327 121.432 194.624 121.432 192.508C121.432 190.368 120.846 188.665 119.672 187.4C118.522 186.111 116.98 185.467 115.047 185.467C113.092 185.467 111.527 186.1 110.354 187.365C109.203 188.631 108.628 190.345 108.628 192.508C108.628 194.647 109.203 196.362 110.354 197.65C111.527 198.916 113.092 199.548 115.047 199.548Z" fill="#ABB7C4" fill-opacity="0.47"/>
</g>
<path fill-rule="evenodd" clip-rule="evenodd" d="M62.7908 102.462H115.999L53.8029 0.000144958H0.594727L62.7908 102.462ZM97.6635 102.102H101.978L39.4221 0.000160217H35.1079L97.6635 102.102ZM81.8448 102.102H77.5306L14.975 0.000160217H19.2892L81.8448 102.102Z" fill="url(#paint4_linear_1659_13226)"/>
<path fill-rule="evenodd" clip-rule="evenodd" d="M57.0384 96.7095C52.4716 96.7095 48.7695 100.412 48.7695 104.978C48.7695 109.545 52.4716 113.247 57.0384 113.247H122.47C127.037 113.247 130.739 109.545 130.739 104.978C130.739 100.412 127.037 96.7095 122.47 96.7095H57.0384ZM57.0384 102.462C55.6485 102.462 54.5218 103.588 54.5218 104.978C54.5218 106.368 55.6485 107.495 57.0384 107.495H122.47C123.86 107.495 124.987 106.368 124.987 104.978C124.987 103.588 123.86 102.462 122.47 102.462H57.0384Z" fill="url(#paint5_linear_1659_13226)"/>
<path d="M87.597 69.3862H116.358V102.462H75.3735L87.597 69.3862Z" fill="white"/>
<path d="M55.9595 90.9574L83.2826 48.5347L90.1134 59.6796L67.464 96.7097H59.1951L55.9595 90.9574Z" fill="#909AA9" fill-opacity="0.38"/>
<path fill-rule="evenodd" clip-rule="evenodd" d="M126.065 0H179.273L117.077 102.462L102.697 102.462L165.252 0.359533H160.938L98.3823 102.462H82.5636L145.119 0.359533H140.805L78.2495 102.462L63.8691 102.462L126.065 0Z" fill="url(#paint6_linear_1659_13226)"/>
<rect x="2" width="175" height="60" fill="url(#paint7_linear_1659_13226)"/>
</g>
<defs>
<filter id="filter0_i_1659_13226" x="33.5552" y="129.785" width="112.168" height="124.392" filterUnits="userSpaceOnUse" color-interpolation-filters="sRGB">
<feFlood flood-opacity="0" result="BackgroundImageFix"/>
<feBlend mode="normal" in="SourceGraphic" in2="BackgroundImageFix" result="shape"/>
<feColorMatrix in="SourceAlpha" type="matrix" values="0 0 0 0 0 0 0 0 0 0 0 0 0 0 0 0 0 0 127 0" result="hardAlpha"/>
<feOffset/>
<feGaussianBlur stdDeviation="3.5"/>
<feComposite in2="hardAlpha" operator="arithmetic" k2="-1" k3="1"/>
<feColorMatrix type="matrix" values="0 0 0 0 0 0 0 0 0 0 0 0 0 0 0 0 0 0 0.25 0"/>
<feBlend mode="normal" in2="shape" result="effect1_innerShadow_1659_13226"/>
</filter>
<filter id="filter1_i_1659_13226" x="53.0659" y="180.117" width="74.3721" height="24.8149" filterUnits="userSpaceOnUse" color-interpolation-filters="sRGB">
<feFlood flood-opacity="0" result="BackgroundImageFix"/>
<feBlend mode="normal" in="SourceGraphic" in2="BackgroundImageFix" result="shape"/>
<feColorMatrix in="SourceAlpha" type="matrix" values="0 0 0 0 0 0 0 0 0 0 0 0 0 0 0 0 0 0 127 0" result="hardAlpha"/>
<feOffset/>
<feGaussianBlur stdDeviation="2"/>
<feComposite in2="hardAlpha" operator="arithmetic" k2="-1" k3="1"/>
<feColorMatrix type="matrix" values="0 0 0 0 0.277917 0 0 0 0 0.320083 0 0 0 0 0.383333 0 0 0 0.87 0"/>
<feBlend mode="overlay" in2="shape" result="effect1_innerShadow_1659_13226"/>
</filter>
<linearGradient id="paint0_linear_1659_13226" x1="89.7545" y1="108.933" x2="89.7545" y2="120.438" gradientUnits="userSpaceOnUse">
<stop stop-color="#646F7E"/>
<stop offset="0.899397" stop-color="#687DB0" stop-opacity="0"/>
</linearGradient>
<linearGradient id="paint1_linear_1659_13226" x1="142.603" y1="259.929" x2="46.253" y2="140.57" gradientUnits="userSpaceOnUse">
<stop stop-color="#80888F"/>
<stop offset="0.474106" stop-color="#DBE4ED"/>
</linearGradient>
<linearGradient id="paint2_linear_1659_13226" x1="39.0624" y1="129.785" x2="155.525" y2="290.143" gradientUnits="userSpaceOnUse">
<stop offset="0.387565" stop-color="#DBE4ED"/>
<stop offset="1" stop-color="#80888F"/>
</linearGradient>
<linearGradient id="paint3_linear_1659_13226" x1="58.4762" y1="138.414" x2="119.594" y2="239.437" gradientUnits="userSpaceOnUse">
<stop offset="0.260551"/>
<stop offset="0.644869" stop-color="#DCE5ED" stop-opacity="0.59"/>
</linearGradient>
<linearGradient id="paint4_linear_1659_13226" x1="63.1503" y1="92.755" x2="50.5673" y2="-13.3019" gradientUnits="userSpaceOnUse">
<stop stop-color="#B2BECB"/>
<stop offset="1" stop-color="#E9E9F7"/>
</linearGradient>
<linearGradient id="paint5_linear_1659_13226" x1="89.7542" y1="96.7095" x2="89.7542" y2="113.247" gradientUnits="userSpaceOnUse">
<stop stop-color="#9AA3B1"/>
<stop offset="1" stop-color="#E8E8E8"/>
</linearGradient>
<linearGradient id="paint6_linear_1659_13226" x1="109.887" y1="87.3621" x2="145.479" y2="8.26885" gradientUnits="userSpaceOnUse">
<stop stop-color="#B2BECB"/>
<stop offset="1" stop-color="#E9E9F7"/>
</linearGradient>
<linearGradient id="paint7_linear_1659_13226" x1="90" y1="9.32387e-08" x2="89.5" y2="60" gradientUnits="userSpaceOnUse">
<stop offset="0.0599063" stop-color="white"/>
<stop offset="1" stop-color="white" stop-opacity="0"/>
</linearGradient>
</defs>
</svg>
