<?xml version="1.0" standalone="no"?>
<!DOCTYPE svg PUBLIC "-//W3C//DTD SVG 20010904//EN"
 "http://www.w3.org/TR/2001/REC-SVG-20010904/DTD/svg10.dtd">
<svg version="1.0" xmlns="http://www.w3.org/2000/svg"
 width="66.000000pt" height="66.000000pt" viewBox="0 0 66.000000 66.000000"
 preserveAspectRatio="xMidYMid meet">
<metadata>
Created by potrace 1.14, written by Peter Selinger 2001-2017
</metadata>
<g transform="translate(0.000000,66.000000) scale(0.100000,-0.100000)"
fill="#000000" stroke="none">
<path d="M267 629 c-44 -12 -85 -48 -98 -86 -7 -23 -12 -110 -13 -232 -2 -163
-5 -201 -19 -228 -9 -17 -21 -35 -27 -38 -29 -18 13 -26 130 -24 110 1 132 4
165 23 76 43 79 53 85 279 5 199 5 203 33 249 15 26 27 51 27 55 0 10 -247 12
-283 2z m141 -41 c16 -16 15 -33 -4 -52 -28 -29 -79 19 -53 50 14 17 41 18 57
2z"/>
</g>
</svg>
