<svg width="190" height="193" viewBox="0 0 190 193" fill="none" xmlns="http://www.w3.org/2000/svg">
<g filter="url(#filter0_f_1801_44693)">
<circle cx="95" cy="95" r="65" fill="url(#paint0_radial_1801_44693)"/>
</g>
<rect opacity="0.6" x="46" y="161" width="101" height="31" rx="15.5" fill="url(#paint1_linear_1801_44693)"/>
<rect x="43" y="162" width="101" height="31" rx="15.5" fill="url(#paint2_linear_1801_44693)"/>
<path d="M59.465 178.845C59.615 177.985 59.92 177.235 60.38 176.595C60.84 175.945 61.41 175.445 62.09 175.095C62.78 174.735 63.525 174.555 64.325 174.555C65.355 174.555 66.16 174.81 66.74 175.32C67.33 175.83 67.66 176.555 67.73 177.495H65.465C65.405 177.135 65.25 176.855 65 176.655C64.75 176.445 64.415 176.34 63.995 176.34C63.395 176.34 62.88 176.56 62.45 177C62.03 177.43 61.75 178.045 61.61 178.845C61.56 179.125 61.535 179.365 61.535 179.565C61.535 180.135 61.675 180.575 61.955 180.885C62.235 181.185 62.625 181.335 63.125 181.335C63.965 181.335 64.585 180.955 64.985 180.195H67.25C66.86 181.095 66.275 181.81 65.495 182.34C64.725 182.87 63.835 183.135 62.825 183.135C61.775 183.135 60.935 182.84 60.305 182.25C59.685 181.65 59.375 180.84 59.375 179.82C59.375 179.51 59.405 179.185 59.465 178.845ZM74.4584 174.57C75.2784 174.57 75.9284 174.805 76.4084 175.275C76.8984 175.745 77.1434 176.405 77.1434 177.255C77.1434 177.575 77.1184 177.865 77.0684 178.125L76.1984 183H74.1134L74.9234 178.41C74.9534 178.23 74.9684 178.055 74.9684 177.885C74.9684 177.385 74.8334 177.005 74.5634 176.745C74.3034 176.485 73.9284 176.355 73.4384 176.355C72.8784 176.355 72.4034 176.525 72.0134 176.865C71.6234 177.195 71.3634 177.67 71.2334 178.29L70.3934 183H68.2784L70.2434 171.9H72.3584L71.6834 175.71C72.0234 175.36 72.4334 175.085 72.9134 174.885C73.4034 174.675 73.9184 174.57 74.4584 174.57ZM83.3254 174.555C84.3854 174.555 85.2254 174.85 85.8454 175.44C86.4654 176.02 86.7754 176.805 86.7754 177.795C86.7754 178.115 86.7504 178.4 86.7004 178.65C86.6404 178.95 86.5754 179.21 86.5054 179.43H80.4304C80.4204 179.5 80.4154 179.6 80.4154 179.73C80.4154 180.25 80.5654 180.66 80.8654 180.96C81.1754 181.25 81.5804 181.395 82.0804 181.395C82.5004 181.395 82.8604 181.305 83.1604 181.125C83.4704 180.935 83.7204 180.69 83.9104 180.39H86.1754C85.8054 181.19 85.2304 181.85 84.4504 182.37C83.6804 182.88 82.8054 183.135 81.8254 183.135C80.7654 183.135 79.9154 182.835 79.2754 182.235C78.6354 181.635 78.3154 180.82 78.3154 179.79C78.3154 179.49 78.3454 179.175 78.4054 178.845C78.5554 177.985 78.8604 177.23 79.3204 176.58C79.7904 175.93 80.3704 175.43 81.0604 175.08C81.7504 174.73 82.5054 174.555 83.3254 174.555ZM84.6154 178.155C84.6354 177.995 84.6454 177.88 84.6454 177.81C84.6454 177.33 84.4904 176.955 84.1804 176.685C83.8704 176.415 83.4654 176.28 82.9654 176.28C82.4354 176.28 81.9604 176.45 81.5404 176.79C81.1204 177.12 80.8254 177.575 80.6554 178.155H84.6154ZM87.6632 178.845C87.8132 177.985 88.1182 177.235 88.5782 176.595C89.0382 175.945 89.6082 175.445 90.2882 175.095C90.9782 174.735 91.7232 174.555 92.5232 174.555C93.5532 174.555 94.3582 174.81 94.9382 175.32C95.5282 175.83 95.8582 176.555 95.9282 177.495H93.6632C93.6032 177.135 93.4482 176.855 93.1982 176.655C92.9482 176.445 92.6132 176.34 92.1932 176.34C91.5932 176.34 91.0782 176.56 90.6482 177C90.2282 177.43 89.9482 178.045 89.8082 178.845C89.7582 179.125 89.7332 179.365 89.7332 179.565C89.7332 180.135 89.8732 180.575 90.1532 180.885C90.4332 181.185 90.8232 181.335 91.3232 181.335C92.1632 181.335 92.7832 180.955 93.1832 180.195H95.4482C95.0582 181.095 94.4732 181.81 93.6932 182.34C92.9232 182.87 92.0332 183.135 91.0232 183.135C89.9732 183.135 89.1332 182.84 88.5032 182.25C87.8832 181.65 87.5732 180.84 87.5732 179.82C87.5732 179.51 87.6032 179.185 87.6632 178.845ZM101.187 178.845L104.127 183H101.412L99.2217 179.475L98.5917 183H96.4767L98.4417 171.9H100.557L99.4467 178.2L102.837 174.69H105.582L101.187 178.845ZM112.751 176.76L112.436 178.53H106.061L106.376 176.76H112.751ZM116.697 173.7C116.367 173.7 116.102 173.605 115.902 173.415C115.702 173.225 115.602 172.985 115.602 172.695C115.602 172.295 115.752 171.955 116.052 171.675C116.362 171.385 116.722 171.24 117.132 171.24C117.452 171.24 117.712 171.335 117.912 171.525C118.112 171.715 118.212 171.955 118.212 172.245C118.212 172.645 118.062 172.99 117.762 173.28C117.462 173.56 117.107 173.7 116.697 173.7ZM117.567 174.69L116.097 183H113.982L115.452 174.69H117.567ZM124.246 174.57C125.106 174.57 125.781 174.805 126.271 175.275C126.771 175.735 127.021 176.395 127.021 177.255C127.021 177.575 126.996 177.865 126.946 178.125L126.076 183H123.991L124.801 178.41C124.831 178.23 124.846 178.055 124.846 177.885C124.846 177.385 124.711 177.005 124.441 176.745C124.181 176.485 123.806 176.355 123.316 176.355C122.756 176.355 122.276 176.525 121.876 176.865C121.486 177.195 121.226 177.675 121.096 178.305L120.271 183H118.156L119.626 174.69H121.741L121.561 175.71C121.901 175.36 122.306 175.085 122.776 174.885C123.246 174.675 123.736 174.57 124.246 174.57Z" fill="white"/>
<g filter="url(#filter1_bi_1801_44693)">
<path d="M100.688 151.625C122.951 151.625 141 133.576 141 111.312C141 89.0485 122.951 71 100.688 71C78.4235 71 60.375 89.0485 60.375 111.312C60.375 133.576 78.4235 151.625 100.688 151.625Z" fill="#AB56DF" fill-opacity="0.82"/>
</g>
<g filter="url(#filter2_bi_1801_44693)">
<path d="M95.3125 151.625C117.576 151.625 135.625 133.576 135.625 111.312C135.625 89.0485 117.576 71 95.3125 71C73.0485 71 55 89.0485 55 111.312C55 133.576 73.0485 151.625 95.3125 151.625Z" fill="url(#paint3_linear_1801_44693)"/>
</g>
<g filter="url(#filter3_ii_1801_44693)">
<path d="M95.3125 143.562C113.124 143.562 127.562 129.124 127.562 111.312C127.562 93.5013 113.124 79.0625 95.3125 79.0625C77.5013 79.0625 63.0625 93.5013 63.0625 111.312C63.0625 129.124 77.5013 143.562 95.3125 143.562Z" fill="#AA1FFF"/>
</g>
<g filter="url(#filter4_d_1801_44693)">
<path fill-rule="evenodd" clip-rule="evenodd" d="M83.6207 100.829V123.808C83.6207 126.428 81.4035 129.451 80.1941 131.064C79.791 131.467 79.9925 132.072 80.5972 132.072H83.4191H84.6285H95.3113C101.358 132.072 106.196 127.234 106.196 121.187V100.023C106.397 97.6045 109.018 93.5732 110.428 91.7592C110.832 91.356 110.428 90.7513 110.025 90.7513H106.397H93.6988C88.055 90.7513 83.6207 95.1857 83.6207 100.829ZM99.3405 97.6077C99.3405 99.0549 98.1674 100.228 96.7202 100.228C95.2731 100.228 94.0999 99.0549 94.0999 97.6077C94.0999 96.1606 95.2731 94.9874 96.7202 94.9874C98.1674 94.9874 99.3405 96.1606 99.3405 97.6077Z" fill="white"/>
</g>
<g filter="url(#filter5_d_1801_44693)">
<path d="M122 28L122.968 34.0988C123.472 37.2731 125.63 39.9378 128.63 41.09L131 42L128.63 42.91C125.63 44.0622 123.472 46.7269 122.968 49.9012L122 56L121.032 49.9012C120.528 46.7269 118.37 44.0622 115.37 42.91L113 42L115.37 41.09C118.37 39.9378 120.528 37.2731 121.032 34.0988L122 28Z" fill="white"/>
</g>
<g filter="url(#filter6_d_1801_44693)">
<path d="M49 52L50.2307 58.9437C51.1818 64.3102 54.969 68.7385 60.123 70.5107L63 71.5L60.123 72.4893C54.969 74.2615 51.1818 78.6898 50.2307 84.0563L49 91L47.7693 84.0563C46.8182 78.6898 43.031 74.2615 37.877 72.4893L35 71.5L37.877 70.5107C43.031 68.7385 46.8182 64.3102 47.7693 58.9437L49 52Z" fill="white"/>
</g>
<g filter="url(#filter7_d_1801_44693)">
<path d="M133.5 111L134.746 119.415C135.263 122.9 137.575 125.856 140.833 127.197L144 128.5L140.833 129.803C137.575 131.144 135.263 134.1 134.746 137.585L133.5 146L132.254 137.585C131.737 134.1 129.425 131.144 126.167 129.803L123 128.5L126.167 127.197C129.425 125.856 131.737 122.9 132.254 119.415L133.5 111Z" fill="white"/>
</g>
<defs>
<filter id="filter0_f_1801_44693" x="0" y="0" width="190" height="190" filterUnits="userSpaceOnUse" color-interpolation-filters="sRGB">
<feFlood flood-opacity="0" result="BackgroundImageFix"/>
<feBlend mode="normal" in="SourceGraphic" in2="BackgroundImageFix" result="shape"/>
<feGaussianBlur stdDeviation="15" result="effect1_foregroundBlur_1801_44693"/>
</filter>
<filter id="filter1_bi_1801_44693" x="56.375" y="67" width="88.625" height="88.625" filterUnits="userSpaceOnUse" color-interpolation-filters="sRGB">
<feFlood flood-opacity="0" result="BackgroundImageFix"/>
<feGaussianBlur in="BackgroundImageFix" stdDeviation="2"/>
<feComposite in2="SourceAlpha" operator="in" result="effect1_backgroundBlur_1801_44693"/>
<feBlend mode="normal" in="SourceGraphic" in2="effect1_backgroundBlur_1801_44693" result="shape"/>
<feColorMatrix in="SourceAlpha" type="matrix" values="0 0 0 0 0 0 0 0 0 0 0 0 0 0 0 0 0 0 127 0" result="hardAlpha"/>
<feOffset dy="4"/>
<feGaussianBlur stdDeviation="2"/>
<feComposite in2="hardAlpha" operator="arithmetic" k2="-1" k3="1"/>
<feColorMatrix type="matrix" values="0 0 0 0 0 0 0 0 0 0 0 0 0 0 0 0 0 0 0.4 0"/>
<feBlend mode="normal" in2="shape" result="effect2_innerShadow_1801_44693"/>
</filter>
<filter id="filter2_bi_1801_44693" x="51" y="67" width="88.625" height="88.625" filterUnits="userSpaceOnUse" color-interpolation-filters="sRGB">
<feFlood flood-opacity="0" result="BackgroundImageFix"/>
<feGaussianBlur in="BackgroundImageFix" stdDeviation="2"/>
<feComposite in2="SourceAlpha" operator="in" result="effect1_backgroundBlur_1801_44693"/>
<feBlend mode="normal" in="SourceGraphic" in2="effect1_backgroundBlur_1801_44693" result="shape"/>
<feColorMatrix in="SourceAlpha" type="matrix" values="0 0 0 0 0 0 0 0 0 0 0 0 0 0 0 0 0 0 127 0" result="hardAlpha"/>
<feOffset/>
<feGaussianBlur stdDeviation="2"/>
<feComposite in2="hardAlpha" operator="arithmetic" k2="-1" k3="1"/>
<feColorMatrix type="matrix" values="0 0 0 0 1 0 0 0 0 1 0 0 0 0 1 0 0 0 0.63 0"/>
<feBlend mode="normal" in2="shape" result="effect2_innerShadow_1801_44693"/>
</filter>
<filter id="filter3_ii_1801_44693" x="63.0625" y="78.0625" width="64.5" height="69.5" filterUnits="userSpaceOnUse" color-interpolation-filters="sRGB">
<feFlood flood-opacity="0" result="BackgroundImageFix"/>
<feBlend mode="normal" in="SourceGraphic" in2="BackgroundImageFix" result="shape"/>
<feColorMatrix in="SourceAlpha" type="matrix" values="0 0 0 0 0 0 0 0 0 0 0 0 0 0 0 0 0 0 127 0" result="hardAlpha"/>
<feOffset dy="4"/>
<feGaussianBlur stdDeviation="2"/>
<feComposite in2="hardAlpha" operator="arithmetic" k2="-1" k3="1"/>
<feColorMatrix type="matrix" values="0 0 0 0 0 0 0 0 0 0 0 0 0 0 0 0 0 0 0.25 0"/>
<feBlend mode="normal" in2="shape" result="effect1_innerShadow_1801_44693"/>
<feColorMatrix in="SourceAlpha" type="matrix" values="0 0 0 0 0 0 0 0 0 0 0 0 0 0 0 0 0 0 127 0" result="hardAlpha"/>
<feOffset dy="-1"/>
<feGaussianBlur stdDeviation="1.5"/>
<feComposite in2="hardAlpha" operator="arithmetic" k2="-1" k3="1"/>
<feColorMatrix type="matrix" values="0 0 0 0 1 0 0 0 0 1 0 0 0 0 1 0 0 0 0.32 0"/>
<feBlend mode="normal" in2="effect1_innerShadow_1801_44693" result="effect2_innerShadow_1801_44693"/>
</filter>
<filter id="filter4_d_1801_44693" x="75.9844" y="86.7513" width="38.6111" height="49.3203" filterUnits="userSpaceOnUse" color-interpolation-filters="sRGB">
<feFlood flood-opacity="0" result="BackgroundImageFix"/>
<feColorMatrix in="SourceAlpha" type="matrix" values="0 0 0 0 0 0 0 0 0 0 0 0 0 0 0 0 0 0 127 0" result="hardAlpha"/>
<feOffset/>
<feGaussianBlur stdDeviation="2"/>
<feComposite in2="hardAlpha" operator="out"/>
<feColorMatrix type="matrix" values="0 0 0 0 1 0 0 0 0 1 0 0 0 0 1 0 0 0 0.25 0"/>
<feBlend mode="normal" in2="BackgroundImageFix" result="effect1_dropShadow_1801_44693"/>
<feBlend mode="normal" in="SourceGraphic" in2="effect1_dropShadow_1801_44693" result="shape"/>
</filter>
<filter id="filter5_d_1801_44693" x="109" y="28" width="26" height="36" filterUnits="userSpaceOnUse" color-interpolation-filters="sRGB">
<feFlood flood-opacity="0" result="BackgroundImageFix"/>
<feColorMatrix in="SourceAlpha" type="matrix" values="0 0 0 0 0 0 0 0 0 0 0 0 0 0 0 0 0 0 127 0" result="hardAlpha"/>
<feOffset dy="4"/>
<feGaussianBlur stdDeviation="2"/>
<feComposite in2="hardAlpha" operator="out"/>
<feColorMatrix type="matrix" values="0 0 0 0 0.422074 0 0 0 0 0.152847 0 0 0 0 0.516667 0 0 0 0.25 0"/>
<feBlend mode="normal" in2="BackgroundImageFix" result="effect1_dropShadow_1801_44693"/>
<feBlend mode="normal" in="SourceGraphic" in2="effect1_dropShadow_1801_44693" result="shape"/>
</filter>
<filter id="filter6_d_1801_44693" x="31" y="52" width="36" height="47" filterUnits="userSpaceOnUse" color-interpolation-filters="sRGB">
<feFlood flood-opacity="0" result="BackgroundImageFix"/>
<feColorMatrix in="SourceAlpha" type="matrix" values="0 0 0 0 0 0 0 0 0 0 0 0 0 0 0 0 0 0 127 0" result="hardAlpha"/>
<feOffset dy="4"/>
<feGaussianBlur stdDeviation="2"/>
<feComposite in2="hardAlpha" operator="out"/>
<feColorMatrix type="matrix" values="0 0 0 0 0.422074 0 0 0 0 0.152847 0 0 0 0 0.516667 0 0 0 0.25 0"/>
<feBlend mode="normal" in2="BackgroundImageFix" result="effect1_dropShadow_1801_44693"/>
<feBlend mode="normal" in="SourceGraphic" in2="effect1_dropShadow_1801_44693" result="shape"/>
</filter>
<filter id="filter7_d_1801_44693" x="119" y="111" width="29" height="43" filterUnits="userSpaceOnUse" color-interpolation-filters="sRGB">
<feFlood flood-opacity="0" result="BackgroundImageFix"/>
<feColorMatrix in="SourceAlpha" type="matrix" values="0 0 0 0 0 0 0 0 0 0 0 0 0 0 0 0 0 0 127 0" result="hardAlpha"/>
<feOffset dy="4"/>
<feGaussianBlur stdDeviation="2"/>
<feComposite in2="hardAlpha" operator="out"/>
<feColorMatrix type="matrix" values="0 0 0 0 0.422074 0 0 0 0 0.152847 0 0 0 0 0.516667 0 0 0 0.25 0"/>
<feBlend mode="normal" in2="BackgroundImageFix" result="effect1_dropShadow_1801_44693"/>
<feBlend mode="normal" in="SourceGraphic" in2="effect1_dropShadow_1801_44693" result="shape"/>
</filter>
<radialGradient id="paint0_radial_1801_44693" cx="0" cy="0" r="1" gradientUnits="userSpaceOnUse" gradientTransform="translate(95 95) rotate(90) scale(65)">
<stop stop-color="#D273FE"/>
<stop offset="1" stop-color="#DB8EFF" stop-opacity="0"/>
</radialGradient>
<linearGradient id="paint1_linear_1801_44693" x1="149.331" y1="168.632" x2="72.5745" y2="221.895" gradientUnits="userSpaceOnUse">
<stop stop-color="#AA1FFF"/>
<stop offset="1" stop-color="#2BA1FF"/>
</linearGradient>
<linearGradient id="paint2_linear_1801_44693" x1="146.331" y1="169.632" x2="69.5745" y2="222.895" gradientUnits="userSpaceOnUse">
<stop stop-color="#AA1FFF"/>
<stop offset="1" stop-color="#2BA1FF"/>
</linearGradient>
<linearGradient id="paint3_linear_1801_44693" x1="69.3333" y1="83.5417" x2="103.375" y2="153.417" gradientUnits="userSpaceOnUse">
<stop stop-color="#BD9BD1"/>
<stop offset="1" stop-color="#DABDEC"/>
</linearGradient>
</defs>
</svg>
