<svg width="205" height="218" viewBox="0 0 205 218" fill="none" xmlns="http://www.w3.org/2000/svg">
<rect width="205" height="218" rx="8" fill="white"/>
<path fill-rule="evenodd" clip-rule="evenodd" d="M188.761 17.4568L189.468 16.7497L188.054 15.3355L187.346 16.0426L180.902 22.4874L174.457 16.0426L173.75 15.3355L172.336 16.7497L173.043 17.4568L179.488 23.9016L173.043 30.3463L172.336 31.0534L173.75 32.4676L174.457 31.7605L180.902 25.3158L187.346 31.7605L188.054 32.4676L189.468 31.0534L188.761 30.3463L182.316 23.9016L188.761 17.4568Z" fill="#DFE1E2"/>
<path fill-rule="evenodd" clip-rule="evenodd" d="M188.761 17.4568L189.468 16.7497L188.054 15.3355L187.346 16.0426L180.902 22.4874L174.457 16.0426L173.75 15.3355L172.336 16.7497L173.043 17.4568L179.488 23.9016L173.043 30.3463L172.336 31.0534L173.75 32.4676L174.457 31.7605L180.902 25.3158L187.346 31.7605L188.054 32.4676L189.468 31.0534L188.761 30.3463L182.316 23.9016L188.761 17.4568Z" fill="black" fill-opacity="0.2"/>
<g clip-path="url(#clip0_1801_44769)">
<circle opacity="0.1" cx="102.5" cy="100" r="40" fill="#73F099"/>
<path fill-rule="evenodd" clip-rule="evenodd" d="M126.313 68.1729C127.322 68.6215 127.777 69.8034 127.328 70.8128L125.328 75.3128C124.88 76.3221 123.698 76.7767 122.688 76.3281C121.679 75.8795 121.224 74.6976 121.673 73.6882L123.673 69.1882C124.121 68.1789 125.303 67.7243 126.313 68.1729ZM137.357 72.0309C138.169 72.7801 138.219 74.0454 137.47 74.8571L131.47 81.3571C130.721 82.1687 129.456 82.2193 128.644 81.4701C127.832 80.7209 127.782 79.4556 128.531 78.6439L134.531 72.1439C135.28 71.3323 136.545 71.2817 137.357 72.0309ZM141.453 84.5666C141.692 85.6449 141.013 86.7133 139.934 86.9529L135.434 87.9529C134.356 88.1925 133.288 87.5126 133.048 86.4344C132.809 85.3561 133.488 84.2877 134.567 84.0481L139.067 83.0481C140.145 82.8085 141.213 83.4884 141.453 84.5666Z" fill="#17BB7F"/>
<path fill-rule="evenodd" clip-rule="evenodd" d="M114.216 82.5562H120.731C122.608 82.5618 124.408 83.3103 125.736 84.6382C127.064 85.9661 127.812 87.7656 127.818 89.6435V116.042C127.812 117.92 127.064 119.719 125.736 121.047C124.408 122.374 122.608 123.123 120.731 123.128H83.5874C81.7095 123.123 79.9101 122.374 78.5821 121.047C77.2542 119.719 76.5056 117.92 76.5 116.042V89.6435C76.5056 87.7656 77.2541 85.9661 78.582 84.6382C79.91 83.3103 81.7094 82.5618 83.5874 82.5562H89.0698V79.48C89.0843 78.8317 89.3521 78.2149 89.8157 77.7616C90.2793 77.3083 90.902 77.0544 91.5504 77.0544C92.1988 77.0544 92.8214 77.3083 93.2851 77.7616C93.7487 78.2149 94.0164 78.8317 94.031 79.48V82.5562H109.256V79.48C109.258 78.8228 109.52 78.1932 109.984 77.7285C110.449 77.2639 111.079 77.002 111.736 77C112.393 77.0017 113.023 77.2635 113.487 77.7282C113.952 78.1929 114.214 78.8227 114.216 79.48V82.5562Z" fill="#17BB7F"/>
<path fill-rule="evenodd" clip-rule="evenodd" d="M117.692 91.6592C118.708 92.5934 118.775 94.1749 117.841 95.1916L100.841 113.692C100.38 114.193 99.734 114.485 99.0528 114.499C98.3716 114.514 97.714 114.25 97.2322 113.768L87.2322 103.768C86.2559 102.791 86.2559 101.209 87.2322 100.232C88.2085 99.2559 89.7915 99.2559 90.7678 100.232L98.9237 108.388L114.159 91.8085C115.093 90.7918 116.675 90.725 117.692 91.6592Z" fill="white"/>
</g>
<path d="M33.0441 166.53L29.5041 173.355V177H27.4041V173.355L23.8491 166.53H26.2191L28.4691 171.315L30.7041 166.53H33.0441ZM37.9452 177.135C37.1452 177.135 36.4252 176.96 35.7852 176.61C35.1452 176.25 34.6402 175.745 34.2702 175.095C33.9102 174.445 33.7302 173.695 33.7302 172.845C33.7302 171.995 33.9152 171.245 34.2852 170.595C34.6652 169.945 35.1802 169.445 35.8302 169.095C36.4802 168.735 37.2052 168.555 38.0052 168.555C38.8052 168.555 39.5302 168.735 40.1802 169.095C40.8302 169.445 41.3402 169.945 41.7102 170.595C42.0902 171.245 42.2802 171.995 42.2802 172.845C42.2802 173.695 42.0852 174.445 41.6952 175.095C41.3152 175.745 40.7952 176.25 40.1352 176.61C39.4852 176.96 38.7552 177.135 37.9452 177.135ZM37.9452 175.305C38.3252 175.305 38.6802 175.215 39.0102 175.035C39.3502 174.845 39.6202 174.565 39.8202 174.195C40.0202 173.825 40.1202 173.375 40.1202 172.845C40.1202 172.055 39.9102 171.45 39.4902 171.03C39.0802 170.6 38.5752 170.385 37.9752 170.385C37.3752 170.385 36.8702 170.6 36.4602 171.03C36.0602 171.45 35.8602 172.055 35.8602 172.845C35.8602 173.635 36.0552 174.245 36.4452 174.675C36.8452 175.095 37.3452 175.305 37.9452 175.305ZM51.6656 168.69V177H49.5506V175.95C49.2806 176.31 48.9256 176.595 48.4856 176.805C48.0556 177.005 47.5856 177.105 47.0756 177.105C46.4256 177.105 45.8506 176.97 45.3506 176.7C44.8506 176.42 44.4556 176.015 44.1656 175.485C43.8856 174.945 43.7456 174.305 43.7456 173.565V168.69H45.8456V173.265C45.8456 173.925 46.0106 174.435 46.3406 174.795C46.6706 175.145 47.1206 175.32 47.6906 175.32C48.2706 175.32 48.7256 175.145 49.0556 174.795C49.3856 174.435 49.5506 173.925 49.5506 173.265V168.69H51.6656ZM61.9919 168.57C62.6219 168.57 63.1819 168.71 63.6719 168.99C64.1619 169.26 64.5419 169.665 64.8119 170.205C65.0919 170.735 65.2319 171.375 65.2319 172.125V177H63.1319V172.41C63.1319 171.75 62.9669 171.245 62.6369 170.895C62.3069 170.535 61.8569 170.355 61.2869 170.355C60.7069 170.355 60.2469 170.535 59.9069 170.895C59.5769 171.245 59.4119 171.75 59.4119 172.41V177H57.3119V165.9H59.4119V169.725C59.6819 169.365 60.0419 169.085 60.4919 168.885C60.9419 168.675 61.4419 168.57 61.9919 168.57ZM66.6888 172.815C66.6888 171.975 66.8538 171.23 67.1838 170.58C67.5238 169.93 67.9788 169.43 68.5488 169.08C69.1288 168.73 69.7738 168.555 70.4838 168.555C71.1038 168.555 71.6438 168.68 72.1038 168.93C72.5738 169.18 72.9488 169.495 73.2288 169.875V168.69H75.3438V177H73.2288V175.785C72.9588 176.175 72.5838 176.5 72.1038 176.76C71.6338 177.01 71.0888 177.135 70.4688 177.135C69.7688 177.135 69.1288 176.955 68.5488 176.595C67.9788 176.235 67.5238 175.73 67.1838 175.08C66.8538 174.42 66.6888 173.665 66.6888 172.815ZM73.2288 172.845C73.2288 172.335 73.1288 171.9 72.9288 171.54C72.7288 171.17 72.4588 170.89 72.1188 170.7C71.7788 170.5 71.4138 170.4 71.0238 170.4C70.6338 170.4 70.2738 170.495 69.9438 170.685C69.6138 170.875 69.3438 171.155 69.1338 171.525C68.9338 171.885 68.8338 172.315 68.8338 172.815C68.8338 173.315 68.9338 173.755 69.1338 174.135C69.3438 174.505 69.6138 174.79 69.9438 174.99C70.2838 175.19 70.6438 175.29 71.0238 175.29C71.4138 175.29 71.7788 175.195 72.1188 175.005C72.4588 174.805 72.7288 174.525 72.9288 174.165C73.1288 173.795 73.2288 173.355 73.2288 172.845ZM80.8599 175.065L82.9599 168.69H85.1949L82.1199 177H79.5699L76.5099 168.69H78.7599L80.8599 175.065ZM94.0994 172.665C94.0994 172.965 94.0794 173.235 94.0394 173.475H87.9644C88.0144 174.075 88.2244 174.545 88.5944 174.885C88.9644 175.225 89.4194 175.395 89.9594 175.395C90.7394 175.395 91.2944 175.06 91.6244 174.39H93.8894C93.6494 175.19 93.1894 175.85 92.5094 176.37C91.8294 176.88 90.9944 177.135 90.0044 177.135C89.2044 177.135 88.4844 176.96 87.8444 176.61C87.2144 176.25 86.7194 175.745 86.3594 175.095C86.0094 174.445 85.8344 173.695 85.8344 172.845C85.8344 171.985 86.0094 171.23 86.3594 170.58C86.7094 169.93 87.1994 169.43 87.8294 169.08C88.4594 168.73 89.1844 168.555 90.0044 168.555C90.7944 168.555 91.4994 168.725 92.1194 169.065C92.7494 169.405 93.2344 169.89 93.5744 170.52C93.9244 171.14 94.0994 171.855 94.0994 172.665ZM91.9244 172.065C91.9144 171.525 91.7194 171.095 91.3394 170.775C90.9594 170.445 90.4944 170.28 89.9444 170.28C89.4244 170.28 88.9844 170.44 88.6244 170.76C88.2744 171.07 88.0594 171.505 87.9794 172.065H91.9244ZM98.6664 172.845C98.6664 171.985 98.8414 171.235 99.1914 170.595C99.5414 169.945 100.026 169.445 100.646 169.095C101.266 168.735 101.976 168.555 102.776 168.555C103.806 168.555 104.656 168.815 105.326 169.335C106.006 169.845 106.461 170.565 106.691 171.495H104.426C104.306 171.135 104.101 170.855 103.811 170.655C103.531 170.445 103.181 170.34 102.761 170.34C102.161 170.34 101.686 170.56 101.336 171C100.986 171.43 100.811 172.045 100.811 172.845C100.811 173.635 100.986 174.25 101.336 174.69C101.686 175.12 102.161 175.335 102.761 175.335C103.611 175.335 104.166 174.955 104.426 174.195H106.691C106.461 175.095 106.006 175.81 105.326 176.34C104.646 176.87 103.796 177.135 102.776 177.135C101.976 177.135 101.266 176.96 100.646 176.61C100.026 176.25 99.5414 175.75 99.1914 175.11C98.8414 174.46 98.6664 173.705 98.6664 172.845ZM111.92 177.135C111.12 177.135 110.4 176.96 109.76 176.61C109.12 176.25 108.615 175.745 108.245 175.095C107.885 174.445 107.705 173.695 107.705 172.845C107.705 171.995 107.89 171.245 108.26 170.595C108.64 169.945 109.155 169.445 109.805 169.095C110.455 168.735 111.18 168.555 111.98 168.555C112.78 168.555 113.505 168.735 114.155 169.095C114.805 169.445 115.315 169.945 115.685 170.595C116.065 171.245 116.255 171.995 116.255 172.845C116.255 173.695 116.06 174.445 115.67 175.095C115.29 175.745 114.77 176.25 114.11 176.61C113.46 176.96 112.73 177.135 111.92 177.135ZM111.92 175.305C112.3 175.305 112.655 175.215 112.985 175.035C113.325 174.845 113.595 174.565 113.795 174.195C113.995 173.825 114.095 173.375 114.095 172.845C114.095 172.055 113.885 171.45 113.465 171.03C113.055 170.6 112.55 170.385 111.95 170.385C111.35 170.385 110.845 170.6 110.435 171.03C110.035 171.45 109.835 172.055 109.835 172.845C109.835 173.635 110.03 174.245 110.42 174.675C110.82 175.095 111.32 175.305 111.92 175.305ZM128.115 168.57C129.135 168.57 129.955 168.885 130.575 169.515C131.205 170.135 131.52 171.005 131.52 172.125V177H129.42V172.41C129.42 171.76 129.255 171.265 128.925 170.925C128.595 170.575 128.145 170.4 127.575 170.4C127.005 170.4 126.55 170.575 126.21 170.925C125.88 171.265 125.715 171.76 125.715 172.41V177H123.615V172.41C123.615 171.76 123.45 171.265 123.12 170.925C122.79 170.575 122.34 170.4 121.77 170.4C121.19 170.4 120.73 170.575 120.39 170.925C120.06 171.265 119.895 171.76 119.895 172.41V177H117.795V168.69H119.895V169.695C120.165 169.345 120.51 169.07 120.93 168.87C121.36 168.67 121.83 168.57 122.34 168.57C122.99 168.57 123.57 168.71 124.08 168.99C124.59 169.26 124.985 169.65 125.265 170.16C125.535 169.68 125.925 169.295 126.435 169.005C126.955 168.715 127.515 168.57 128.115 168.57ZM135.613 169.89C135.883 169.51 136.253 169.195 136.723 168.945C137.203 168.685 137.748 168.555 138.358 168.555C139.068 168.555 139.708 168.73 140.278 169.08C140.858 169.43 141.313 169.93 141.643 170.58C141.983 171.22 142.153 171.965 142.153 172.815C142.153 173.665 141.983 174.42 141.643 175.08C141.313 175.73 140.858 176.235 140.278 176.595C139.708 176.955 139.068 177.135 138.358 177.135C137.748 177.135 137.208 177.01 136.738 176.76C136.278 176.51 135.903 176.195 135.613 175.815V180.96H133.513V168.69H135.613V169.89ZM140.008 172.815C140.008 172.315 139.903 171.885 139.693 171.525C139.493 171.155 139.223 170.875 138.883 170.685C138.553 170.495 138.193 170.4 137.803 170.4C137.423 170.4 137.063 170.5 136.723 170.7C136.393 170.89 136.123 171.17 135.913 171.54C135.713 171.91 135.613 172.345 135.613 172.845C135.613 173.345 135.713 173.78 135.913 174.15C136.123 174.52 136.393 174.805 136.723 175.005C137.063 175.195 137.423 175.29 137.803 175.29C138.193 175.29 138.553 175.19 138.883 174.99C139.223 174.79 139.493 174.505 139.693 174.135C139.903 173.765 140.008 173.325 140.008 172.815ZM145.779 165.9V177H143.679V165.9H145.779ZM155.579 172.665C155.579 172.965 155.559 173.235 155.519 173.475H149.444C149.494 174.075 149.704 174.545 150.074 174.885C150.444 175.225 150.899 175.395 151.439 175.395C152.219 175.395 152.774 175.06 153.104 174.39H155.369C155.129 175.19 154.669 175.85 153.989 176.37C153.309 176.88 152.474 177.135 151.484 177.135C150.684 177.135 149.964 176.96 149.324 176.61C148.694 176.25 148.199 175.745 147.839 175.095C147.489 174.445 147.314 173.695 147.314 172.845C147.314 171.985 147.489 171.23 147.839 170.58C148.189 169.93 148.679 169.43 149.309 169.08C149.939 168.73 150.664 168.555 151.484 168.555C152.274 168.555 152.979 168.725 153.599 169.065C154.229 169.405 154.714 169.89 155.054 170.52C155.404 171.14 155.579 171.855 155.579 172.665ZM153.404 172.065C153.394 171.525 153.199 171.095 152.819 170.775C152.439 170.445 151.974 170.28 151.424 170.28C150.904 170.28 150.464 170.44 150.104 170.76C149.754 171.07 149.539 171.505 149.459 172.065H153.404ZM159.557 170.415V174.435C159.557 174.715 159.622 174.92 159.752 175.05C159.892 175.17 160.122 175.23 160.442 175.23H161.417V177H160.097C158.327 177 157.442 176.14 157.442 174.42V170.415H156.452V168.69H157.442V166.635H159.557V168.69H161.417V170.415H159.557ZM170.652 172.665C170.652 172.965 170.632 173.235 170.592 173.475H164.517C164.567 174.075 164.777 174.545 165.147 174.885C165.517 175.225 165.972 175.395 166.512 175.395C167.292 175.395 167.847 175.06 168.177 174.39H170.442C170.202 175.19 169.742 175.85 169.062 176.37C168.382 176.88 167.547 177.135 166.557 177.135C165.757 177.135 165.037 176.96 164.397 176.61C163.767 176.25 163.272 175.745 162.912 175.095C162.562 174.445 162.387 173.695 162.387 172.845C162.387 171.985 162.562 171.23 162.912 170.58C163.262 169.93 163.752 169.43 164.382 169.08C165.012 168.73 165.737 168.555 166.557 168.555C167.347 168.555 168.052 168.725 168.672 169.065C169.302 169.405 169.787 169.89 170.127 170.52C170.477 171.14 170.652 171.855 170.652 172.665ZM168.477 172.065C168.467 171.525 168.272 171.095 167.892 170.775C167.512 170.445 167.047 170.28 166.497 170.28C165.977 170.28 165.537 170.44 165.177 170.76C164.827 171.07 164.612 171.505 164.532 172.065H168.477ZM171.645 172.815C171.645 171.975 171.81 171.23 172.14 170.58C172.48 169.93 172.94 169.43 173.52 169.08C174.1 168.73 174.745 168.555 175.455 168.555C175.995 168.555 176.51 168.675 177 168.915C177.49 169.145 177.88 169.455 178.17 169.845V165.9H180.3V177H178.17V175.77C177.91 176.18 177.545 176.51 177.075 176.76C176.605 177.01 176.06 177.135 175.44 177.135C174.74 177.135 174.1 176.955 173.52 176.595C172.94 176.235 172.48 175.73 172.14 175.08C171.81 174.42 171.645 173.665 171.645 172.815ZM178.185 172.845C178.185 172.335 178.085 171.9 177.885 171.54C177.685 171.17 177.415 170.89 177.075 170.7C176.735 170.5 176.37 170.4 175.98 170.4C175.59 170.4 175.23 170.495 174.9 170.685C174.57 170.875 174.3 171.155 174.09 171.525C173.89 171.885 173.79 172.315 173.79 172.815C173.79 173.315 173.89 173.755 174.09 174.135C174.3 174.505 174.57 174.79 174.9 174.99C175.24 175.19 175.6 175.29 175.98 175.29C176.37 175.29 176.735 175.195 177.075 175.005C177.415 174.805 177.685 174.525 177.885 174.165C178.085 173.795 178.185 173.355 178.185 172.845ZM41.8345 185.415V189.435C41.8345 189.715 41.8995 189.92 42.0295 190.05C42.1695 190.17 42.3995 190.23 42.7195 190.23H43.6945V192H42.3745C40.6045 192 39.7195 191.14 39.7195 189.42V185.415H38.7295V183.69H39.7195V181.635H41.8345V183.69H43.6945V185.415H41.8345ZM48.8949 192.135C48.0949 192.135 47.3749 191.96 46.7349 191.61C46.0949 191.25 45.5899 190.745 45.2199 190.095C44.8599 189.445 44.6799 188.695 44.6799 187.845C44.6799 186.995 44.8649 186.245 45.2349 185.595C45.6149 184.945 46.1299 184.445 46.7799 184.095C47.4299 183.735 48.1549 183.555 48.9549 183.555C49.7549 183.555 50.4799 183.735 51.1299 184.095C51.7799 184.445 52.2899 184.945 52.6599 185.595C53.0399 186.245 53.2299 186.995 53.2299 187.845C53.2299 188.695 53.0349 189.445 52.6449 190.095C52.2649 190.745 51.7449 191.25 51.0849 191.61C50.4349 191.96 49.7049 192.135 48.8949 192.135ZM48.8949 190.305C49.2749 190.305 49.6299 190.215 49.9599 190.035C50.2999 189.845 50.5699 189.565 50.7699 189.195C50.9699 188.825 51.0699 188.375 51.0699 187.845C51.0699 187.055 50.8599 186.45 50.4399 186.03C50.0299 185.6 49.5249 185.385 48.9249 185.385C48.3249 185.385 47.8199 185.6 47.4099 186.03C47.0099 186.45 46.8099 187.055 46.8099 187.845C46.8099 188.635 47.0049 189.245 47.3949 189.675C47.7949 190.095 48.2949 190.305 48.8949 190.305ZM54.2304 187.815C54.2304 186.975 54.3954 186.23 54.7254 185.58C55.0654 184.93 55.5254 184.43 56.1054 184.08C56.6854 183.73 57.3304 183.555 58.0404 183.555C58.5804 183.555 59.0954 183.675 59.5854 183.915C60.0754 184.145 60.4654 184.455 60.7554 184.845V180.9H62.8854V192H60.7554V190.77C60.4954 191.18 60.1304 191.51 59.6604 191.76C59.1904 192.01 58.6454 192.135 58.0254 192.135C57.3254 192.135 56.6854 191.955 56.1054 191.595C55.5254 191.235 55.0654 190.73 54.7254 190.08C54.3954 189.42 54.2304 188.665 54.2304 187.815ZM60.7704 187.845C60.7704 187.335 60.6704 186.9 60.4704 186.54C60.2704 186.17 60.0004 185.89 59.6604 185.7C59.3204 185.5 58.9554 185.4 58.5654 185.4C58.1754 185.4 57.8154 185.495 57.4854 185.685C57.1554 185.875 56.8854 186.155 56.6754 186.525C56.4754 186.885 56.3754 187.315 56.3754 187.815C56.3754 188.315 56.4754 188.755 56.6754 189.135C56.8854 189.505 57.1554 189.79 57.4854 189.99C57.8254 190.19 58.1854 190.29 58.5654 190.29C58.9554 190.29 59.3204 190.195 59.6604 190.005C60.0004 189.805 60.2704 189.525 60.4704 189.165C60.6704 188.795 60.7704 188.355 60.7704 187.845ZM64.3964 187.815C64.3964 186.975 64.5614 186.23 64.8914 185.58C65.2314 184.93 65.6864 184.43 66.2564 184.08C66.8364 183.73 67.4814 183.555 68.1914 183.555C68.8114 183.555 69.3514 183.68 69.8114 183.93C70.2814 184.18 70.6564 184.495 70.9364 184.875V183.69H73.0514V192H70.9364V190.785C70.6664 191.175 70.2914 191.5 69.8114 191.76C69.3414 192.01 68.7964 192.135 68.1764 192.135C67.4764 192.135 66.8364 191.955 66.2564 191.595C65.6864 191.235 65.2314 190.73 64.8914 190.08C64.5614 189.42 64.3964 188.665 64.3964 187.815ZM70.9364 187.845C70.9364 187.335 70.8364 186.9 70.6364 186.54C70.4364 186.17 70.1664 185.89 69.8264 185.7C69.4864 185.5 69.1214 185.4 68.7314 185.4C68.3414 185.4 67.9814 185.495 67.6514 185.685C67.3214 185.875 67.0514 186.155 66.8414 186.525C66.6414 186.885 66.5414 187.315 66.5414 187.815C66.5414 188.315 66.6414 188.755 66.8414 189.135C67.0514 189.505 67.3214 189.79 67.6514 189.99C67.9914 190.19 68.3514 190.29 68.7314 190.29C69.1214 190.29 69.4864 190.195 69.8264 190.005C70.1664 189.805 70.4364 189.525 70.6364 189.165C70.8364 188.795 70.9364 188.355 70.9364 187.845ZM83.0524 183.69L77.9074 195.93H75.6724L77.4724 191.79L74.1424 183.69H76.4974L78.6424 189.495L80.8174 183.69H83.0524ZM85.5044 180.03L85.3244 183.21H83.8994L83.7044 180.03H85.5044ZM90.2941 192.135C89.6141 192.135 89.0041 192.015 88.4641 191.775C87.9241 191.525 87.4941 191.19 87.1741 190.77C86.8641 190.35 86.6941 189.885 86.6641 189.375H88.7791C88.8191 189.695 88.9741 189.96 89.2441 190.17C89.5241 190.38 89.8691 190.485 90.2791 190.485C90.6791 190.485 90.9891 190.405 91.2091 190.245C91.4391 190.085 91.5541 189.88 91.5541 189.63C91.5541 189.36 91.4141 189.16 91.1341 189.03C90.8641 188.89 90.4291 188.74 89.8291 188.58C89.2091 188.43 88.6991 188.275 88.2991 188.115C87.9091 187.955 87.5691 187.71 87.2791 187.38C86.9991 187.05 86.8591 186.605 86.8591 186.045C86.8591 185.585 86.9891 185.165 87.2491 184.785C87.5191 184.405 87.8991 184.105 88.3891 183.885C88.8891 183.665 89.4741 183.555 90.1441 183.555C91.1341 183.555 91.9241 183.805 92.5141 184.305C93.1041 184.795 93.4291 185.46 93.4891 186.3H91.4791C91.4491 185.97 91.3091 185.71 91.0591 185.52C90.8191 185.32 90.4941 185.22 90.0841 185.22C89.7041 185.22 89.4091 185.29 89.1991 185.43C88.9991 185.57 88.8991 185.765 88.8991 186.015C88.8991 186.295 89.0391 186.51 89.3191 186.66C89.5991 186.8 90.0341 186.945 90.6241 187.095C91.2241 187.245 91.7191 187.4 92.1091 187.56C92.4991 187.72 92.8341 187.97 93.1141 188.31C93.4041 188.64 93.5541 189.08 93.5641 189.63C93.5641 190.11 93.4291 190.54 93.1591 190.92C92.8991 191.3 92.5191 191.6 92.0191 191.82C91.5291 192.03 90.9541 192.135 90.2941 192.135ZM98.3221 187.845C98.3221 186.985 98.4971 186.235 98.8471 185.595C99.1971 184.945 99.6821 184.445 100.302 184.095C100.922 183.735 101.632 183.555 102.432 183.555C103.462 183.555 104.312 183.815 104.982 184.335C105.662 184.845 106.117 185.565 106.347 186.495H104.082C103.962 186.135 103.757 185.855 103.467 185.655C103.187 185.445 102.837 185.34 102.417 185.34C101.817 185.34 101.342 185.56 100.992 186C100.642 186.43 100.467 187.045 100.467 187.845C100.467 188.635 100.642 189.25 100.992 189.69C101.342 190.12 101.817 190.335 102.417 190.335C103.267 190.335 103.822 189.955 104.082 189.195H106.347C106.117 190.095 105.662 190.81 104.982 191.34C104.302 191.87 103.452 192.135 102.432 192.135C101.632 192.135 100.922 191.96 100.302 191.61C99.6821 191.25 99.1971 190.75 98.8471 190.11C98.4971 189.46 98.3221 188.705 98.3221 187.845ZM112.566 183.57C113.196 183.57 113.756 183.71 114.246 183.99C114.736 184.26 115.116 184.665 115.386 185.205C115.666 185.735 115.806 186.375 115.806 187.125V192H113.706V187.41C113.706 186.75 113.541 186.245 113.211 185.895C112.881 185.535 112.431 185.355 111.861 185.355C111.281 185.355 110.821 185.535 110.481 185.895C110.151 186.245 109.986 186.75 109.986 187.41V192H107.886V180.9H109.986V184.725C110.256 184.365 110.616 184.085 111.066 183.885C111.516 183.675 112.016 183.57 112.566 183.57ZM125.528 187.665C125.528 187.965 125.508 188.235 125.468 188.475H119.393C119.443 189.075 119.653 189.545 120.023 189.885C120.393 190.225 120.848 190.395 121.388 190.395C122.168 190.395 122.723 190.06 123.053 189.39H125.318C125.078 190.19 124.618 190.85 123.938 191.37C123.258 191.88 122.423 192.135 121.433 192.135C120.633 192.135 119.913 191.96 119.273 191.61C118.643 191.25 118.148 190.745 117.788 190.095C117.438 189.445 117.263 188.695 117.263 187.845C117.263 186.985 117.438 186.23 117.788 185.58C118.138 184.93 118.628 184.43 119.258 184.08C119.888 183.73 120.613 183.555 121.433 183.555C122.223 183.555 122.928 183.725 123.548 184.065C124.178 184.405 124.663 184.89 125.003 185.52C125.353 186.14 125.528 186.855 125.528 187.665ZM123.353 187.065C123.343 186.525 123.148 186.095 122.768 185.775C122.388 185.445 121.923 185.28 121.373 185.28C120.853 185.28 120.413 185.44 120.053 185.76C119.703 186.07 119.488 186.505 119.408 187.065H123.353ZM126.52 187.845C126.52 186.985 126.695 186.235 127.045 185.595C127.395 184.945 127.88 184.445 128.5 184.095C129.12 183.735 129.83 183.555 130.63 183.555C131.66 183.555 132.51 183.815 133.18 184.335C133.86 184.845 134.315 185.565 134.545 186.495H132.28C132.16 186.135 131.955 185.855 131.665 185.655C131.385 185.445 131.035 185.34 130.615 185.34C130.015 185.34 129.54 185.56 129.19 186C128.84 186.43 128.665 187.045 128.665 187.845C128.665 188.635 128.84 189.25 129.19 189.69C129.54 190.12 130.015 190.335 130.615 190.335C131.465 190.335 132.02 189.955 132.28 189.195H134.545C134.315 190.095 133.86 190.81 133.18 191.34C132.5 191.87 131.65 192.135 130.63 192.135C129.83 192.135 129.12 191.96 128.5 191.61C127.88 191.25 127.395 190.75 127.045 190.11C126.695 189.46 126.52 188.705 126.52 187.845ZM141.004 192L138.184 188.46V192H136.084V180.9H138.184V187.215L140.974 183.69H143.704L140.044 187.86L143.734 192H141.004ZM151.234 185.76V187.53H144.874V185.76H151.234ZM154.654 182.7C154.284 182.7 153.974 182.585 153.724 182.355C153.484 182.115 153.364 181.82 153.364 181.47C153.364 181.12 153.484 180.83 153.724 180.6C153.974 180.36 154.284 180.24 154.654 180.24C155.024 180.24 155.329 180.36 155.569 180.6C155.819 180.83 155.944 181.12 155.944 181.47C155.944 181.82 155.819 182.115 155.569 182.355C155.329 182.585 155.024 182.7 154.654 182.7ZM155.689 183.69V192H153.589V183.69H155.689ZM162.369 183.57C163.359 183.57 164.159 183.885 164.769 184.515C165.379 185.135 165.684 186.005 165.684 187.125V192H163.584V187.41C163.584 186.75 163.419 186.245 163.089 185.895C162.759 185.535 162.309 185.355 161.739 185.355C161.159 185.355 160.699 185.535 160.359 185.895C160.029 186.245 159.864 186.75 159.864 187.41V192H157.764V183.69H159.864V184.725C160.144 184.365 160.499 184.085 160.929 183.885C161.369 183.675 161.849 183.57 162.369 183.57Z" fill="#17BB7F"/>
<defs>
<clipPath id="clip0_1801_44769">
<rect width="80" height="80" fill="white" transform="translate(62.5 60)"/>
</clipPath>
</defs>
</svg>
