<svg width="16" height="16" viewBox="0 0 16 16" fill="none" xmlns="http://www.w3.org/2000/svg">
<path d="M4.7797 15.1667C3.19304 15.1667 1.89307 14.0134 1.89307 12.5934V11.2334C1.89307 10.9601 2.11973 10.7334 2.39307 10.7334C2.6664 10.7334 2.89307 10.9601 2.89307 11.2334C2.89307 12.0667 3.6997 12.6934 4.7797 12.6934C5.8597 12.6934 6.66638 12.0667 6.66638 11.2334C6.66638 10.9601 6.89305 10.7334 7.16638 10.7334C7.43972 10.7334 7.66638 10.9601 7.66638 11.2334V12.5934C7.66638 14.0134 6.37304 15.1667 4.7797 15.1667ZM3.06637 13.2467C3.3597 13.7934 4.0197 14.1667 4.7797 14.1667C5.5397 14.1667 6.19971 13.7867 6.49304 13.2467C6.01971 13.5334 5.43304 13.7001 4.7797 13.7001C4.12637 13.7001 3.5397 13.5334 3.06637 13.2467Z" fill="white"/>
<path d="M4.7797 11.8668C3.68637 11.8668 2.70639 11.3668 2.21973 10.5734C2.00639 10.2268 1.89307 9.82012 1.89307 9.40678C1.89307 8.70678 2.19972 8.05344 2.75972 7.56678C3.83972 6.62011 5.69971 6.62014 6.78638 7.56014C7.34638 8.05348 7.65971 8.70678 7.65971 9.40678C7.65971 9.82012 7.54638 10.2268 7.33305 10.5734C6.85305 11.3668 5.87304 11.8668 4.7797 11.8668ZM4.7797 7.83346C4.2597 7.83346 3.77972 8.00678 3.41972 8.32011C3.07972 8.61345 2.89307 9.00012 2.89307 9.40678C2.89307 9.64012 2.95304 9.85347 3.07304 10.0535C3.37971 10.5601 4.03304 10.8735 4.7797 10.8735C5.52637 10.8735 6.1797 10.5601 6.4797 10.0601C6.5997 9.86681 6.65971 9.64679 6.65971 9.41346C6.65971 9.00679 6.47306 8.62011 6.13306 8.32011C5.77972 8.00678 5.2997 7.83346 4.7797 7.83346Z" fill="white"/>
<path d="M4.7797 13.7002C3.13304 13.7002 1.89307 12.6402 1.89307 11.2402V9.40682C1.89307 7.98682 3.18637 6.8335 4.7797 6.8335C5.53304 6.8335 6.25305 7.09351 6.79305 7.56018C7.35305 8.05351 7.66638 8.70682 7.66638 9.40682V11.2402C7.66638 12.6402 6.42637 13.7002 4.7797 13.7002ZM4.7797 7.8335C3.7397 7.8335 2.89307 8.54015 2.89307 9.40682V11.2402C2.89307 12.0735 3.6997 12.7002 4.7797 12.7002C5.8597 12.7002 6.66638 12.0735 6.66638 11.2402V9.40682C6.66638 9.00015 6.47973 8.61348 6.13973 8.31348C5.77973 8.00681 5.2997 7.8335 4.7797 7.8335Z" fill="white"/>
<path d="M12.6931 9.86662C11.6864 9.86662 10.8331 9.11995 10.7531 8.15995C10.6998 7.60662 10.8998 7.06663 11.2998 6.6733C11.6331 6.32663 12.1064 6.1333 12.6064 6.1333H13.9998C14.6598 6.1533 15.1664 6.67327 15.1664 7.31327V8.68665C15.1664 9.32665 14.6598 9.84662 14.0198 9.86662H12.6931ZM13.9798 7.1333H12.6131C12.3798 7.1333 12.1665 7.21996 12.0131 7.37996C11.8198 7.56663 11.7264 7.81995 11.7531 8.07328C11.7864 8.51328 12.2131 8.86662 12.6931 8.86662H13.9998C14.0864 8.86662 14.1664 8.78665 14.1664 8.68665V7.31327C14.1664 7.21327 14.0864 7.13997 13.9798 7.1333Z" fill="white"/>
<path d="M10.6667 14.1668H9C8.72667 14.1668 8.5 13.9402 8.5 13.6668C8.5 13.3935 8.72667 13.1668 9 13.1668H10.6667C12.3867 13.1668 13.5 12.0535 13.5 10.3335V9.86682H12.6933C11.6867 9.86682 10.8333 9.12016 10.7533 8.16016C10.7 7.60682 10.9 7.06684 11.3 6.6735C11.6333 6.32684 12.1066 6.1335 12.6066 6.1335H13.4933V5.66683C13.4933 4.10683 12.58 3.03348 11.1 2.86015C10.94 2.83348 10.8 2.8335 10.66 2.8335H4.65999C4.49999 2.8335 4.34665 2.84682 4.19332 2.86682C2.72665 3.05349 1.82666 4.12016 1.82666 5.66683V7.00016C1.82666 7.2735 1.59999 7.50016 1.32666 7.50016C1.05333 7.50016 0.82666 7.2735 0.82666 7.00016V5.66683C0.82666 3.6135 2.09335 2.12683 4.06002 1.88017C4.24002 1.8535 4.44666 1.8335 4.65999 1.8335H10.66C10.82 1.8335 11.0267 1.84016 11.24 1.87349C13.2067 2.10016 14.4933 3.5935 14.4933 5.66683V6.6335C14.4933 6.90684 14.2667 7.1335 13.9933 7.1335H12.6066C12.3733 7.1335 12.16 7.22017 12.0067 7.38017C11.8133 7.56683 11.72 7.82015 11.7467 8.07349C11.78 8.51349 12.2067 8.86682 12.6867 8.86682H14C14.2733 8.86682 14.5 9.09349 14.5 9.36682V10.3335C14.5 12.6268 12.96 14.1668 10.6667 14.1668Z" fill="white"/>
</svg>
